<svg width="33" height="37" viewBox="0 0 33 37" fill="none" xmlns="http://www.w3.org/2000/svg">
<path d="M29.2961 12.3336H25.3032L23.7616 10.792H20.0462C19.2292 10.7944 18.4464 11.1201 17.8687 11.6978C17.291 12.2755 16.9653 13.0583 16.9629 13.8753V20.0419C16.9653 20.8589 17.291 21.6417 17.8687 22.2194C18.4464 22.7971 19.2292 23.1228 20.0462 23.1252H29.2961C30.1131 23.1228 30.8959 22.7971 31.4736 22.2194C32.0513 21.6417 32.377 20.8589 32.3794 20.0419V15.4169C32.377 14.6 32.0513 13.8171 31.4736 13.2394C30.8959 12.6617 30.1131 12.3361 29.2961 12.3336ZM29.2961 20.0419H20.0462V13.8753H23.1295L24.6711 15.4169H29.2961V20.0419Z" fill="#EC4C93"/>
<path d="M29.2961 26.2086H25.3032L23.7616 24.667H20.0462C19.2292 24.6694 18.4464 24.9951 17.8687 25.5728C17.291 26.1505 16.9653 26.9333 16.9629 27.7503V33.9169C16.9653 34.7339 17.291 35.5167 17.8687 36.0944C18.4464 36.6721 19.2292 36.9978 20.0462 37.0002H29.2961C30.1131 36.9978 30.8959 36.6721 31.4736 36.0944C32.0513 35.5167 32.377 34.7339 32.3794 33.9169V29.2919C32.377 28.475 32.0513 27.6921 31.4736 27.1144C30.8959 26.5367 30.1131 26.2111 29.2961 26.2086ZM29.2961 33.9169H20.0462V27.7503H23.1295L24.6711 29.2919H29.2961V33.9169Z" fill="#EC4C93"/>
<path d="M9.24541 29.2907V18.4991H16.9537V15.4158H9.24541V12.3325H6.16211V32.374H16.9537V29.2907H9.24541Z" fill="#EC4C93"/>
<path d="M12.3332 1.54165H8.34033L6.79868 0H3.0833C2.26631 0.00244001 1.48348 0.328071 0.905774 0.905774C0.328071 1.48348 0.00244001 2.26631 0 3.0833V9.24991C0.00244001 10.0669 0.328071 10.8497 0.905774 11.4274C1.48348 12.0051 2.26631 12.3308 3.0833 12.3332H12.3332C13.1502 12.3308 13.933 12.0051 14.5107 11.4274C15.0884 10.8497 15.4141 10.0669 15.4165 9.24991V4.62495C15.4141 3.80796 15.0884 3.02513 14.5107 2.44742C13.933 1.86972 13.1502 1.54409 12.3332 1.54165ZM12.3332 9.24991H3.0833V3.0833H6.1666L7.70825 4.62495H12.3332V9.24991Z" fill="#EC4C93"/>
</svg>
