<svg width="150" height="130" viewBox="0 0 150 130" fill="none" xmlns="http://www.w3.org/2000/svg">
<path d="M28.6668 111.091C28.8515 110.989 29.0848 110.941 29.3473 110.941H29.7071V110.144H25.7403V110.941H26.1C26.3236 110.941 26.5084 110.98 26.6396 111.057C26.7125 111.101 26.7466 111.208 26.7466 111.378C26.7466 111.548 26.7174 111.723 26.6591 111.898C26.5959 112.098 26.523 112.287 26.4452 112.462L20.0672 126.297L15.9984 117.411L18.0158 113.002C18.2297 112.555 18.429 112.18 18.604 111.898C18.7644 111.636 18.9248 111.432 19.0804 111.291C19.2262 111.16 19.3721 111.067 19.5228 111.014C19.6832 110.96 19.8631 110.931 20.0624 110.931H20.4221V110.134H16.4553V110.931H16.815C17.4033 110.931 17.4324 111.125 17.4373 111.189C17.481 111.5 17.3838 111.932 17.1553 112.457L15.4199 116.21L13.6552 112.336C13.592 112.195 13.5337 112.03 13.4754 111.85C13.4268 111.689 13.4025 111.529 13.4025 111.373C13.4025 111.121 13.4851 111.072 13.5143 111.053C13.6552 110.97 13.8351 110.931 14.049 110.931H14.4087V110.134H9.28498V110.931H9.64471C9.92666 110.931 10.1649 110.98 10.3447 111.072C10.5343 111.169 10.7093 111.31 10.86 111.48C11.0204 111.665 11.1566 111.874 11.2732 112.103C11.3996 112.355 11.5212 112.618 11.6427 112.89L14.3066 118.67L10.7822 126.297L4.37512 112.346C4.16609 111.864 4.08831 111.475 4.14178 111.189C4.1515 111.125 4.19039 110.941 4.76888 110.941H5.12861V110.144H0V110.941H0.359732C0.563905 110.941 0.748632 110.965 0.913914 111.014C1.06461 111.057 1.21045 111.145 1.35143 111.266C1.50212 111.398 1.65282 111.587 1.80838 111.835C1.97367 112.107 2.15839 112.467 2.3577 112.895L9.88291 129.273H10.4954L14.856 119.866L19.1679 129.273H19.8096L27.3348 112.963C27.4515 112.696 27.5778 112.428 27.714 112.171C27.8404 111.928 27.9862 111.709 28.1466 111.514C28.2876 111.344 28.4675 111.198 28.6668 111.091Z" fill="#B769A0"/>
<path d="M38.8447 116.221C37.8238 115.511 36.5307 115.151 35.0043 115.151C33.4778 115.151 32.175 115.511 31.1396 116.221C30.1139 116.926 29.3312 117.815 28.8159 118.875C28.3055 119.925 28.043 121.077 28.043 122.293C28.043 123.513 28.2958 124.66 28.8013 125.71C29.3069 126.77 30.0798 127.659 31.1007 128.364C32.1264 129.074 33.4244 129.434 34.9557 129.434C36.4821 129.434 37.78 129.074 38.8106 128.364C39.8315 127.659 40.6044 126.77 41.1197 125.71C41.6302 124.66 41.8927 123.508 41.8927 122.288C41.8927 121.072 41.6399 119.92 41.1343 118.87C40.6239 117.815 39.8509 116.926 38.8447 116.221ZM36.5307 128.291C36.3606 128.34 36.1953 128.369 36.0349 128.384C35.8696 128.398 35.6946 128.408 35.5147 128.408C34.6348 128.408 33.8327 128.145 33.1376 127.625C32.4181 127.091 31.8104 126.4 31.3389 125.584C30.8625 124.752 30.5222 123.829 30.3229 122.832C30.1236 121.84 30.0993 120.883 30.25 119.983C30.3958 119.099 30.7312 118.301 31.2514 117.616C31.7618 116.94 32.4667 116.503 33.4098 116.279L33.4195 116.274C33.5897 116.231 33.7549 116.197 33.9154 116.182C34.0855 116.167 34.2556 116.158 34.4112 116.158C35.3008 116.158 36.0835 116.415 36.7884 116.94C37.5078 117.475 38.1155 118.165 38.587 118.982C39.0634 119.813 39.4037 120.742 39.603 121.738C39.8023 122.73 39.8266 123.697 39.6759 124.602C39.5301 125.491 39.1995 126.288 38.6842 126.969C38.1835 127.63 37.4835 128.063 36.5307 128.291Z" fill="#B769A0"/>
<path d="M67.8427 128.182C67.7212 128.24 67.6142 128.274 67.5121 128.274C67.4149 128.274 67.2837 128.25 67.1378 128.065C67.0114 127.9 66.9434 127.608 66.9434 127.215V119.967C66.9434 119.135 66.817 118.401 66.5691 117.794C66.3163 117.181 65.9663 116.666 65.5239 116.257C65.0864 115.854 64.576 115.557 64.0169 115.368C62.8842 114.993 61.6106 115.008 60.3467 115.378C59.7001 115.567 59.0827 115.849 58.5091 116.219C57.9404 116.588 57.4299 117.035 56.9875 117.55C56.798 117.769 56.6278 118.003 56.482 118.251C56.4042 117.973 56.307 117.721 56.1903 117.482C55.9181 116.943 55.5681 116.486 55.1451 116.131C54.7222 115.776 54.2361 115.509 53.6916 115.339C52.5638 114.989 51.3291 115.018 50.1186 115.378C49.4818 115.567 48.8693 115.839 48.3054 116.189C47.7317 116.544 47.2213 116.982 46.7789 117.497C46.6671 117.623 46.565 117.755 46.4678 117.891V115.47L46.0546 115.334L43.0406 115.898V116.632H43.4004C43.7698 116.632 43.9643 116.661 44.0615 116.685C44.1927 116.719 44.2365 116.758 44.2462 116.773C44.2608 116.792 44.2948 116.846 44.3094 116.982C44.324 117.147 44.3337 117.351 44.3337 117.589V127.273C44.3191 127.691 44.2268 128.002 44.0664 128.206C43.9254 128.381 43.59 128.474 43.0941 128.474H42.7344V129.271H48.0672V128.474H47.7074C47.1921 128.474 46.8373 128.376 46.706 128.197C46.5456 127.978 46.4629 127.642 46.4629 127.21V120.171C46.638 119.582 46.9005 119.053 47.2407 118.591C47.5956 118.114 48.0088 117.701 48.4706 117.361C48.9276 117.025 49.4186 116.763 49.9339 116.588C50.8818 116.262 51.82 116.233 52.6465 116.534C53.0159 116.671 53.3416 116.885 53.6236 117.171C53.9055 117.463 54.134 117.837 54.3041 118.285C54.4791 118.742 54.5666 119.305 54.5666 119.962V127.181C54.5666 127.633 54.484 127.968 54.3187 128.187C54.1777 128.372 53.8375 128.469 53.327 128.469H52.9673V129.266H58.3001V128.469H57.9404C57.4348 128.469 57.0896 128.372 56.9487 128.187C56.7834 127.968 56.7007 127.647 56.7007 127.229V120.161C56.8757 119.573 57.1382 119.043 57.4785 118.581C57.8334 118.105 58.2466 117.691 58.7036 117.351C59.1605 117.016 59.6515 116.753 60.1668 116.578C61.1147 116.253 62.053 116.223 62.8794 116.525C63.2488 116.661 63.5745 116.875 63.8565 117.162C64.1384 117.453 64.3669 117.828 64.5371 118.275C64.7121 118.732 64.7996 119.296 64.7996 119.952V127.2C64.7996 127.954 64.994 128.517 65.3732 128.887C65.7524 129.252 66.2093 129.441 66.7343 129.441C67.2739 129.441 67.799 129.252 68.2948 128.877L68.5816 128.663L68.1101 128.036L67.8427 128.182Z" fill="#B769A0"/>
<path d="M82.4442 124.643L82.2838 124.92C81.647 125.994 80.8789 126.787 79.9941 127.278C78.3996 128.162 76.669 128.245 75.0697 127.569C74.36 127.273 73.7231 126.84 73.1738 126.291C72.6245 125.742 72.1772 125.066 71.8467 124.278C71.5161 123.496 71.346 122.591 71.346 121.595V121.055C71.346 121.002 71.346 120.953 71.3508 120.9H81.1462C81.8122 120.9 82.0115 120.623 82.065 120.384C82.1136 120.175 82.0942 119.903 82.0115 119.529C81.8463 118.795 81.5595 118.148 81.1657 117.604C80.7719 117.064 80.3052 116.607 79.7754 116.243C79.2455 115.878 78.6573 115.601 78.0205 115.421C76.601 115.018 75.06 115.066 73.5967 115.582C72.7849 115.873 72.0411 116.316 71.3849 116.904C70.7335 117.492 70.1987 118.231 69.805 119.096C69.4063 119.966 69.207 120.997 69.207 122.159C69.207 123.355 69.4063 124.419 69.805 125.319C70.1987 126.218 70.7335 126.981 71.3849 127.589C72.0363 128.196 72.7946 128.658 73.6356 128.965C74.4718 129.271 75.3419 129.426 76.2218 129.426C77.5489 129.426 78.8517 129.091 80.1011 128.43C81.3601 127.764 82.381 126.733 83.1345 125.372L83.3241 125.027L82.4442 124.643ZM80.4948 119.825C80.49 119.855 80.4851 119.859 80.4657 119.869C80.4316 119.889 80.3198 119.928 80.0476 119.947C79.8094 119.962 79.4594 119.971 79.0024 119.971H71.4918C71.6133 119.422 71.8029 118.941 72.0606 118.532C72.3814 118.022 72.7655 117.594 73.2078 117.264C73.6502 116.933 74.1461 116.685 74.6759 116.534C75.76 116.228 76.8878 116.233 77.9232 116.52C78.4288 116.661 78.8809 116.875 79.2698 117.152C79.649 117.424 79.9601 117.75 80.1934 118.129C80.4171 118.498 80.5289 118.897 80.5289 119.349C80.5289 119.548 80.5191 119.709 80.4948 119.825Z" fill="#B769A0"/>
<path d="M98.1323 128.182C98.0107 128.24 97.9038 128.274 97.8017 128.274C97.7239 128.274 97.5975 128.255 97.4517 128.065C97.3253 127.9 97.2573 127.608 97.2573 127.214L97.2329 119.971C97.2329 119.135 97.1066 118.406 96.8586 117.798C96.6058 117.186 96.2607 116.67 95.828 116.267C95.3954 115.863 94.8898 115.562 94.3308 115.377C93.1981 115.003 91.9196 115.017 90.6751 115.387C90.0383 115.576 89.4258 115.849 88.8619 116.199C88.2882 116.554 87.7778 116.991 87.3354 117.506C87.2236 117.633 87.1216 117.764 87.0243 117.9V115.46L86.5722 115.348L83.5971 115.907V116.641H83.9569C84.302 116.641 84.4916 116.67 84.5888 116.695C84.7201 116.729 84.7638 116.767 84.7736 116.782C84.7882 116.801 84.8222 116.855 84.8368 116.991C84.8513 117.152 84.8611 117.356 84.8611 117.599V127.195C84.8611 127.647 84.7784 127.987 84.6229 128.211C84.4916 128.391 84.1367 128.488 83.6215 128.488H83.2617V129.285H88.5945V128.488H88.2348C87.7292 128.488 87.3841 128.391 87.2431 128.206C87.0778 127.987 86.9952 127.657 86.9952 127.224L87.0195 120.185C87.1945 119.597 87.457 119.067 87.7973 118.605C88.1521 118.129 88.5653 117.715 89.0126 117.375C89.4598 117.04 89.9459 116.777 90.4612 116.602C90.9717 116.427 91.4772 116.34 91.9682 116.34C92.8287 116.34 93.5481 116.622 94.1752 117.2C94.7829 117.764 95.094 118.697 95.094 119.981V127.229C95.094 127.982 95.2884 128.546 95.6676 128.916C96.0468 129.28 96.5038 129.47 97.0288 129.47C97.5684 129.47 98.0934 129.28 98.5892 128.906L98.8712 128.692L98.3996 128.065L98.1323 128.182Z" fill="#B769A0"/>
<path d="M105.476 128.224C105.106 128.365 104.766 128.433 104.469 128.433C104.017 128.433 103.682 128.239 103.4 127.821C103.098 127.368 102.943 126.508 102.943 125.259V116.256H105.262V115.332H102.943L102.967 112.678H102.18L102.121 112.965C101.995 113.587 101.732 114.087 101.319 114.496C100.901 114.904 100.391 115.191 99.8025 115.347L99.5352 115.415V116.256H100.799V125.905C100.799 127.14 101.1 128.049 101.698 128.603C102.287 129.157 103.016 129.434 103.867 129.434C104.518 129.434 105.164 129.293 105.792 129.016L106.108 128.875L105.796 128.098L105.476 128.224Z" fill="#B769A0"/>
<path d="M119.44 124.916C118.803 125.99 118.035 126.782 117.15 127.273C115.556 128.158 113.825 128.241 112.226 127.565C111.516 127.269 110.879 126.836 110.33 126.287C109.781 125.737 109.334 125.062 109.003 124.274C108.672 123.491 108.502 122.587 108.502 121.591V121.051C108.502 120.998 108.502 120.949 108.507 120.896H118.303C118.968 120.896 119.168 120.618 119.221 120.38C119.27 120.171 119.25 119.899 119.168 119.53C119.003 118.795 118.716 118.149 118.322 117.604C117.928 117.065 117.462 116.608 116.932 116.243C116.402 115.879 115.814 115.602 115.177 115.422C113.757 115.018 112.216 115.062 110.753 115.582C109.941 115.874 109.197 116.316 108.541 116.904C107.89 117.493 107.355 118.232 106.961 119.097C106.563 119.967 106.363 120.998 106.363 122.159C106.363 123.355 106.563 124.42 106.961 125.319C107.355 126.219 107.89 126.982 108.541 127.589C109.193 128.197 109.951 128.659 110.792 128.965C111.628 129.271 112.498 129.427 113.378 129.427C114.705 129.427 116.008 129.092 117.257 128.43C118.516 127.764 119.537 126.734 120.291 125.373L120.48 125.028L119.6 124.634L119.44 124.916ZM117.651 119.826C117.646 119.855 117.641 119.86 117.622 119.87C117.588 119.889 117.476 119.928 117.204 119.948C116.966 119.962 116.616 119.972 116.159 119.972H108.648C108.77 119.423 108.959 118.941 109.217 118.533C109.538 118.023 109.922 117.595 110.364 117.264C110.806 116.934 111.302 116.686 111.832 116.535C112.916 116.229 114.044 116.234 115.08 116.52C115.585 116.661 116.037 116.875 116.426 117.152C116.805 117.425 117.116 117.75 117.35 118.129C117.573 118.499 117.685 118.898 117.685 119.35C117.685 119.549 117.675 119.709 117.651 119.826Z" fill="#B769A0"/>
<path d="M135.062 125.107L134.216 124.684L134.046 124.976C133.429 126.031 132.666 126.808 131.776 127.29C130.177 128.155 128.432 128.247 126.793 127.581C126.074 127.29 125.432 126.872 124.888 126.332C124.338 125.792 123.886 125.122 123.546 124.344C123.206 123.566 123.036 122.681 123.036 121.704C123.036 120.795 123.186 119.993 123.483 119.322C123.779 118.646 124.178 118.068 124.664 117.606C125.15 117.144 125.714 116.789 126.331 116.561C127.44 116.148 128.66 116.094 129.836 116.43C130.284 116.556 130.716 116.746 131.134 116.984C131.144 117.562 131.275 118.063 131.523 118.471C131.825 118.977 132.189 119.254 132.637 119.303C133.084 119.332 133.429 119.103 133.589 118.685C133.745 118.272 133.599 117.825 133.157 117.363C132.471 116.605 131.664 116.036 130.765 115.686C129.039 115.005 127.163 114.986 125.418 115.618C124.567 115.924 123.804 116.381 123.147 116.979C122.486 117.577 121.947 118.326 121.538 119.21C121.13 120.095 120.926 121.126 120.926 122.273C120.926 123.454 121.125 124.499 121.524 125.384C121.917 126.269 122.452 127.018 123.104 127.615C123.755 128.213 124.518 128.665 125.369 128.967C126.21 129.263 127.095 129.414 127.989 129.414C129.331 129.414 130.639 129.084 131.868 128.432C133.113 127.776 134.124 126.77 134.878 125.442L135.062 125.107Z" fill="#B769A0"/>
<path d="M149.524 128.053L149.256 128.189C149.135 128.247 149.028 128.281 148.926 128.281C148.829 128.281 148.697 128.257 148.551 128.072C148.425 127.907 148.357 127.615 148.357 127.222V119.973C148.357 119.137 148.231 118.408 147.983 117.8C147.73 117.188 147.38 116.673 146.938 116.264C146.5 115.861 145.99 115.564 145.431 115.375C144.298 115 143.019 115.015 141.775 115.384C141.138 115.574 140.526 115.851 139.957 116.211C139.388 116.571 138.878 117.013 138.435 117.514C138.328 117.64 138.221 117.766 138.129 117.903L138.153 110.236L137.701 110.125L134.726 110.684V111.442H135.086C135.368 111.442 135.587 111.456 135.737 111.486C135.815 111.5 135.873 111.525 135.893 111.554C135.927 111.602 135.956 111.685 135.966 111.787C135.98 111.952 135.99 112.157 135.99 112.395V127.187C135.99 127.64 135.907 127.98 135.747 128.203C135.616 128.383 135.261 128.481 134.75 128.481H134.391V129.278H139.723V128.481H139.364C138.858 128.481 138.513 128.383 138.372 128.199C138.207 127.98 138.124 127.649 138.124 127.217V120.178C138.299 119.589 138.562 119.059 138.902 118.598C139.257 118.121 139.67 117.708 140.127 117.368C140.584 117.032 141.075 116.77 141.59 116.595C142.538 116.269 143.476 116.24 144.303 116.541C144.672 116.677 144.998 116.891 145.28 117.178C145.562 117.47 145.79 117.844 145.96 118.291C146.135 118.748 146.223 119.312 146.223 119.969V127.217C146.223 127.97 146.417 128.534 146.797 128.904C147.176 129.268 147.633 129.458 148.158 129.458C148.697 129.458 149.222 129.268 149.718 128.894L150 128.68L149.524 128.053Z" fill="#B769A0"/>
<path d="M113.329 0C108.039 0 103.747 4.28762 103.747 9.58151V26.8924V62.0198V62.5108C103.616 67.7901 99.1823 72.0242 93.8155 71.8298C88.7403 71.645 84.5937 67.1289 84.5937 62.0489V26.8924V9.58151C84.5986 4.28762 80.3061 0 75.017 0C69.728 0 65.4355 4.28762 65.4355 9.58151V26.8924V62.0489C65.4355 67.1289 61.2937 71.645 56.2137 71.8298C50.8518 72.0242 46.4135 67.7901 46.2822 62.5108V62.0198V26.8875V9.58151C46.2871 4.28762 41.9995 0 36.7056 0C31.4165 0 27.1289 4.28762 27.1289 9.58151V62.2628C27.1289 65.622 27.7025 68.845 28.7623 71.8395C32.6999 82.996 43.346 90.9928 55.8637 90.9928C63.2237 90.9928 69.9419 88.2219 75.017 83.6718C80.097 88.2219 86.8153 90.9928 94.1752 90.9928C106.693 90.9928 117.334 82.996 121.277 71.8395C122.336 68.845 122.91 65.622 122.91 62.2628V9.58151C122.91 4.28762 118.618 0 113.329 0Z" fill="#B769A0"/>
</svg>
