<svg width="348" height="100" viewBox="0 0 348 100" fill="none" xmlns="http://www.w3.org/2000/svg">
<rect x="0.697266" width="346.604" height="100" rx="5" fill="url(#paint0_linear)"/>
<path d="M121.146 49.8472C121.146 49.8654 121.166 49.8836 121.166 49.9018C121.146 49.8654 121.146 49.8472 121.146 49.8472Z" fill="#41C1D1"/>
<path d="M120.294 43.0186C120.427 42.8365 120.56 42.6726 120.692 42.4723L124.331 37.1733L119.593 41.6529C115.67 45.3494 111.481 48.7728 107.027 51.8501C102.573 54.9458 97.8724 57.6954 93.0014 60.1719C90.5564 61.3919 88.0925 62.5573 85.5717 63.6317C83.0698 64.7242 80.5111 65.7257 77.9335 66.6544C72.7782 68.5118 67.5091 70.1506 62.1074 71.2978C62.6002 71.225 63.074 71.1522 63.5668 71.0793C63.0551 71.1522 62.5813 71.2432 62.1074 71.2978C68.8927 71.5163 74.2755 74.1203 74.2755 74.1203C75.8107 75.0854 77.4407 75.9048 79.1654 76.5968C82.7855 78.0535 86.7089 78.7819 90.8975 78.7637C95.0294 78.7455 98.9338 77.9989 102.573 76.4875C106.212 74.9944 109.434 72.9185 112.201 70.2599C114.968 67.6013 117.148 64.5239 118.721 61.0095C120.294 57.4951 121.071 53.7439 121.052 49.7743C121.052 48.445 120.958 47.1521 120.768 45.8957C120.692 44.967 120.522 43.9655 120.294 43.0186ZM109.434 61.4465C108.581 62.7576 107.614 63.9776 106.496 65.0884C104.506 67.055 102.194 68.6028 99.5592 69.7318C96.9247 70.8608 94.0438 71.4435 90.9355 71.4435C87.8271 71.4435 84.9462 70.8972 82.3117 69.7682C80.8144 69.1309 79.4497 68.3479 78.1419 67.4556C78.1609 67.4556 78.1988 67.4374 78.2178 67.4374C83.4868 65.7622 88.6231 63.6863 93.5889 61.2826C93.7785 61.1916 93.949 61.1005 94.1386 61.0095C94.4229 60.9002 94.7261 60.791 95.0104 60.6635C96.394 60.0444 97.7966 59.4617 99.1612 58.8062C99.9572 58.4238 100.753 58.0231 101.549 57.6225C102.042 57.4404 102.554 57.2584 103.085 57.0763C105.15 56.4571 107.33 56.0201 108.789 56.3115C109.718 56.4936 110.363 56.967 110.476 57.8957C110.59 58.7151 110.287 59.8623 109.434 61.4465Z" fill="#39C1D7"/>
<path d="M80.9257 35.3155C79.7506 39.5037 78.6892 43.7283 77.7415 47.9529L77.3245 49.7556L79.2199 49.6464C81.2668 49.5189 83.3138 49.3914 85.3607 49.2276L85.9104 49.1911L86.2326 48.8634C87.1424 47.8983 88.0521 46.8968 88.9429 45.9134C89.8527 44.9301 90.7435 43.9286 91.5964 42.9089C92.4872 41.9074 93.3401 40.8694 94.193 39.8497C95.0459 38.8118 95.8798 37.7738 96.6759 36.6813C95.5766 37.4825 94.5152 38.3201 93.4728 39.176C92.4303 40.0318 91.3879 40.8876 90.3644 41.7617C89.3409 42.6357 88.3175 43.5098 87.3319 44.4203C86.46 45.1851 85.6071 45.9681 84.7542 46.7511C83.4844 46.7693 82.2145 46.8057 80.9636 46.8421L85.7398 28.9787C87.4267 28.5598 89.1704 28.3231 90.9899 28.3049C92.0892 28.2867 93.1695 28.3595 94.212 28.487C96.0883 28.7237 97.8889 29.1972 99.6326 29.8891C102.097 30.8907 104.257 32.2564 106.134 34.0045C106.323 34.1866 106.532 34.3322 106.721 34.5325C107.858 35.6615 108.844 36.8998 109.716 38.2108L109.83 38.1562C109.83 38.1562 109.792 38.1926 109.754 38.2655C109.773 38.2837 109.792 38.3201 109.811 38.3383C109.697 38.4476 109.602 38.5386 109.488 38.6297C108.105 40.487 102.362 47.4066 90.0422 53.7071C100.296 50.5569 107.593 46.4779 112.237 43.2367C112.256 43.2184 112.293 43.2002 112.312 43.182C116.255 40.4142 118.283 38.3019 118.624 37.9195C118.643 37.9013 118.662 37.9013 118.681 37.9013C118.681 37.9013 118.681 37.8831 118.662 37.8831L118.681 37.8649C118.681 37.8649 118.662 37.8467 118.643 37.8467C117.051 34.66 114.947 31.8193 112.293 29.3429C109.45 26.6843 106.19 24.6084 102.532 23.1334C98.8555 21.6585 94.989 20.9483 90.8951 21.0029C89.8527 21.0211 88.8292 21.0758 87.8247 21.185L87.8436 21.1122L86.1757 21.3853C86.1757 21.3671 86.1947 21.3307 86.1947 21.3307L84.2994 21.6949L83.3327 25.6281L66.4453 22.9878L82.1197 30.5629L80.9257 35.3155Z" fill="#FFC012"/>
<path d="M149.464 36.4807C148.307 35.3699 146.981 34.4958 145.446 33.8585C143.91 33.2212 142.28 32.9116 140.556 32.9116C138.945 32.9116 137.409 33.1848 135.931 33.731C134.453 34.2773 133.145 35.0603 131.97 36.0801L129.582 33.4397H127.838V60.6628H135.059V45.0937C135.059 44.3836 135.192 43.7098 135.476 43.0725C135.76 42.4352 136.139 41.8889 136.632 41.4154C137.125 40.942 137.713 40.5596 138.376 40.3047C139.039 40.0315 139.76 39.904 140.518 39.904C141.257 39.904 141.958 40.0315 142.603 40.3047C143.247 40.5778 143.835 40.942 144.327 41.4154C144.82 41.8889 145.218 42.4534 145.483 43.0725C145.768 43.7098 145.9 44.3836 145.9 45.0937V60.6628H153.122V45.0937C153.122 43.4185 152.799 41.8342 152.136 40.3593C151.511 38.8843 150.601 37.5914 149.464 36.4807Z" fill="#39C1D7"/>
<path d="M165.571 33.4399H158.293V60.6631H165.571V33.4399Z" fill="#39C1D7"/>
<path d="M165.382 22.7689C164.946 22.3501 164.435 22.0223 163.828 21.7856C163.24 21.5489 162.615 21.4214 161.933 21.4214C161.269 21.4214 160.625 21.5489 160.037 21.7856C159.45 22.0405 158.938 22.3683 158.502 22.7689C158.066 23.1877 157.725 23.6794 157.479 24.2439C157.213 24.8083 157.1 25.4093 157.1 26.0466C157.1 26.6839 157.232 27.2848 157.479 27.8493C157.725 28.4138 158.085 28.8873 158.502 29.3061C158.938 29.7249 159.45 30.0527 160.037 30.2894C160.625 30.5261 161.25 30.6536 161.933 30.6536C162.596 30.6536 163.24 30.5261 163.828 30.2894C164.416 30.0345 164.927 29.7067 165.382 29.3061C165.818 28.8873 166.178 28.3956 166.425 27.8493C166.69 27.2848 166.804 26.6839 166.804 26.0466C166.804 25.4275 166.671 24.8266 166.425 24.2439C166.178 23.6794 165.837 23.1877 165.382 22.7689Z" fill="#FFC012"/>
<path d="M178.917 41.6342C179.562 40.924 180.32 40.3777 181.192 39.9953C182.064 39.6129 182.992 39.4126 183.978 39.4126C184.679 39.4126 185.38 39.5219 186.044 39.7222C186.707 39.9225 187.333 40.2321 187.901 40.6145C188.47 40.9969 189 41.4885 189.455 42.053C189.91 42.6175 190.27 43.2548 190.536 43.965L195.824 38.8481C195.198 37.8102 194.44 36.8997 193.568 36.0985C192.696 35.2973 191.749 34.6236 190.706 34.0773C189.683 33.531 188.583 33.1122 187.446 32.8208C186.309 32.5295 185.153 32.3838 183.959 32.3838C181.969 32.3838 180.092 32.7662 178.33 33.5492C176.567 34.3322 175.032 35.3883 173.724 36.7358C172.416 38.0833 171.374 39.6676 170.616 41.4703C169.858 43.2912 169.479 45.2397 169.479 47.3155C169.479 49.2275 169.858 51.0303 170.616 52.7055C171.374 54.3808 172.416 55.8558 173.724 57.1122C175.032 58.3687 176.567 59.352 178.33 60.0803C180.092 60.8087 181.95 61.1547 183.959 61.1547C185.134 61.1547 186.29 61.0272 187.408 60.7541C188.527 60.4992 189.588 60.0986 190.611 59.6069C191.635 59.097 192.564 58.4779 193.436 57.7495C194.307 57.0212 195.084 56.2017 195.748 55.2913L190.46 50.1744C190.176 50.7935 189.815 51.3398 189.361 51.8497C188.906 52.3413 188.394 52.7784 187.825 53.1243C187.257 53.4703 186.631 53.7435 185.987 53.9256C185.342 54.1077 184.66 54.1987 183.959 54.1987C182.973 54.1987 182.045 54.0166 181.173 53.6706C180.301 53.3246 179.543 52.8148 178.898 52.1957C178.254 51.5765 177.742 50.8482 177.382 50.0105C177.003 49.1729 176.832 48.2988 176.832 47.3337C176.832 46.1683 177.022 45.094 177.382 44.1289C177.78 43.182 178.273 42.3444 178.917 41.6342Z" fill="#39C1D7"/>
<path d="M222.114 36.3534C220.806 35.097 219.271 34.1137 217.527 33.4217C215.764 32.7298 213.888 32.3838 211.879 32.3838C209.889 32.3838 208.012 32.748 206.25 33.4764C204.487 34.2047 202.952 35.2063 201.644 36.4809C200.336 37.7556 199.294 39.2852 198.536 41.0515C197.778 42.8178 197.398 44.7298 197.398 46.8057C197.398 48.8451 197.778 50.7389 198.536 52.487C199.294 54.2351 200.336 55.7647 201.644 57.0394C202.952 58.314 204.487 59.3338 206.25 60.0621C208.012 60.8087 209.889 61.1729 211.879 61.1729C213.888 61.1729 215.764 60.8087 217.527 60.0621C219.29 59.3155 220.806 58.314 222.114 57.0394C223.421 55.7647 224.445 54.2351 225.203 52.487C225.961 50.7389 226.34 48.8451 226.34 46.8057C226.34 44.6387 225.961 42.6721 225.203 40.8876C224.445 39.1395 223.402 37.6099 222.114 36.3534ZM218.494 49.8466C218.114 50.7571 217.603 51.5401 216.939 52.1774C216.295 52.8148 215.518 53.3246 214.646 53.6706C213.774 54.0348 212.845 54.1987 211.86 54.1987C210.874 54.1987 209.946 53.9984 209.074 53.6342C208.202 53.2518 207.444 52.7237 206.799 52.0682C206.155 51.4127 205.643 50.6297 205.283 49.7374C204.904 48.8451 204.733 47.8618 204.733 46.8057C204.733 45.6949 204.923 44.6752 205.283 43.7647C205.643 42.8542 206.155 42.0712 206.799 41.4339C207.444 40.7783 208.202 40.2867 209.074 39.9407C209.946 39.5947 210.874 39.4126 211.86 39.4126C212.845 39.4126 213.774 39.5947 214.646 39.9407C215.518 40.2867 216.276 40.7966 216.939 41.4339C217.584 42.0894 218.114 42.8724 218.494 43.7647C218.873 44.6752 219.062 45.6767 219.062 46.8057C219.062 47.9164 218.873 48.918 218.494 49.8466Z" fill="#39C1D7"/>
<path d="M238.429 34.314C236.951 34.8603 235.624 35.6433 234.468 36.663L232.08 33.4399H230.336V60.6631H237.557V45.6585C237.557 44.9301 237.69 44.2381 237.974 43.6008C238.258 42.9635 238.637 42.399 239.13 41.9255C239.623 41.4521 240.211 41.0697 240.874 40.8148C241.537 40.5416 242.258 40.4142 243.016 40.4142H249.384V33.4946H243.016C241.443 33.4946 239.907 33.7677 238.429 34.314Z" fill="#39C1D7"/>
<path d="M277.111 40.3599C276.448 38.8849 275.538 37.5739 274.401 36.4631C273.245 35.3523 271.918 34.4783 270.383 33.8409C268.848 33.2036 267.218 32.894 265.493 32.894C263.882 32.894 262.347 33.1672 260.868 33.7135C259.39 34.2598 258.082 35.0428 256.907 36.0625L254.519 33.4221H252.775V60.6634H259.997V45.1126C259.997 44.4024 260.129 43.7287 260.414 43.0913C260.698 42.454 261.077 41.9077 261.57 41.4161C262.063 40.9426 262.65 40.5602 263.313 40.3053C263.977 40.0504 264.697 39.9047 265.455 39.9047C266.194 39.9047 266.896 40.0321 267.54 40.3053C268.184 40.5784 268.772 40.9426 269.265 41.4161C269.758 41.8895 270.137 42.454 270.421 43.0913C270.705 43.7287 270.838 44.4024 270.838 45.1126V60.6634H278.059V45.1126C278.097 43.4373 277.775 41.8531 277.111 40.3599Z" fill="#39C1D7"/>
<path d="M250.103 69.9683V78.8727H249.25V71.5525L245.839 78.8727H245.46L242.048 71.5525V78.8727H241.195V69.9683H242.143L245.649 77.4523L249.156 69.9683H250.103Z" fill="#4D4D4F"/>
<path d="M258.675 75.922H252.78C252.856 77.2877 253.993 78.3075 255.377 78.3075C256.287 78.3075 257.102 77.8522 257.575 77.1239L258.239 77.397C257.651 78.3621 256.59 78.9812 255.377 78.9812C253.519 78.9812 252.041 77.5609 252.041 75.7946C252.041 74.0282 253.519 72.6079 255.358 72.6079C257.177 72.6079 258.618 73.9736 258.675 75.7217V75.922ZM252.837 75.3029H257.879C257.651 74.1557 256.628 73.3181 255.377 73.3181C254.107 73.3181 253.083 74.1557 252.837 75.3029Z" fill="#4D4D4F"/>
<path d="M259.693 75.7953C259.693 74.0472 261.172 72.6086 262.934 72.6086C264.091 72.6086 265.038 73.1367 265.569 73.9561V69.9683H266.346V78.8727H265.569V77.6526C265.019 78.4539 264.072 79.0001 262.934 79.0001C261.172 78.9819 259.693 77.5616 259.693 75.7953ZM265.569 75.7953C265.569 74.4478 264.451 73.3552 263.048 73.3552C261.702 73.337 260.565 74.3749 260.489 75.6678C260.414 77.0882 261.57 78.2718 263.029 78.2718C264.451 78.2536 265.569 77.161 265.569 75.7953Z" fill="#4D4D4F"/>
<path d="M268.357 70.4416C268.357 70.1138 268.642 69.8589 268.964 69.8589C269.286 69.8589 269.57 70.1138 269.57 70.4416C269.57 70.7694 269.286 71.0243 268.964 71.0243C268.642 71.0243 268.357 70.7694 268.357 70.4416ZM268.566 72.736H269.343V78.8726H268.566V72.736Z" fill="#4D4D4F"/>
<path d="M271.031 75.7946C271.031 74.0465 272.51 72.6079 274.272 72.6079C275.428 72.6079 276.376 73.136 276.907 73.9554V72.7354H277.684V78.872H276.907V77.6519C276.357 78.4531 275.409 78.9994 274.272 78.9994C272.51 78.9812 271.031 77.5609 271.031 75.7946ZM276.907 75.7946C276.907 74.4471 275.77 73.3545 274.367 73.3545C272.964 73.3545 271.827 74.4471 271.827 75.7946C271.827 77.1421 272.964 78.2528 274.367 78.2528C275.77 78.2528 276.907 77.1603 276.907 75.7946Z" fill="#4D4D4F"/>
<path d="M280.792 30.6175H279.124V32.8936H278.631V27.4126H280.488C280.792 27.4126 281.057 27.449 281.303 27.5219C281.55 27.5947 281.739 27.7039 281.91 27.8314C282.08 27.9771 282.213 28.141 282.289 28.3413C282.365 28.5416 282.422 28.7783 282.422 29.0332C282.422 29.2153 282.384 29.3792 282.327 29.5431C282.27 29.707 282.194 29.8527 282.08 29.9801C281.967 30.1076 281.853 30.2169 281.701 30.3079C281.55 30.3989 281.398 30.4718 281.227 30.5264L282.649 32.8572V32.9118H282.137L280.792 30.6175ZM279.143 30.2169H280.621C280.848 30.2169 281.038 30.1804 281.209 30.1258C281.379 30.053 281.512 29.9801 281.625 29.8709C281.739 29.7616 281.815 29.6341 281.872 29.4885C281.929 29.3428 281.948 29.1971 281.948 29.0332C281.948 28.8511 281.91 28.669 281.853 28.5234C281.796 28.3777 281.701 28.2502 281.569 28.141C281.436 28.0317 281.284 27.9589 281.114 27.9043C280.924 27.8496 280.735 27.8132 280.488 27.8132H279.124V30.2169H279.143Z" fill="#4D4D4F"/>
<path d="M280.486 34.8602C277.719 34.8602 275.482 32.7115 275.482 30.0529C275.482 27.3943 277.719 25.2456 280.486 25.2456C283.253 25.2456 285.49 27.3943 285.49 30.0529C285.49 32.7115 283.253 34.8602 280.486 34.8602ZM280.486 25.7008C277.984 25.7008 275.956 27.6493 275.956 30.0529C275.956 32.4565 277.984 34.405 280.486 34.405C282.988 34.405 285.016 32.4565 285.016 30.0529C285.016 27.6493 282.988 25.7008 280.486 25.7008Z" fill="#4D4D4F"/>
<defs>
<linearGradient id="paint0_linear" x1="4.42992" y1="4.1841" x2="258.92" y2="209.532" gradientUnits="userSpaceOnUse">
<stop stop-color="white"/>
<stop offset="1" stop-color="white"/>
</linearGradient>
</defs>
</svg>
