<svg width="38" height="37" viewBox="0 0 38 37" fill="none" xmlns="http://www.w3.org/2000/svg">
<path fill-rule="evenodd" clip-rule="evenodd" d="M24.9178 3.58227C25.5612 3.58227 26.0185 4.13727 26.0185 4.67545V5.49955C27.3901 5.95364 28.4061 7.33273 28.4061 8.98091C28.4061 9.62 27.8473 10.175 27.3054 10.175C26.5773 10.175 26.0185 9.62 26.0185 8.98091C26.0185 8.24091 25.4766 7.78682 24.9178 7.78682C24.2743 7.78682 23.6308 8.34182 23.6308 8.98091C23.7324 9.62 24.7315 10.2591 25.6459 10.9991C26.9329 11.9241 28.5754 13.1014 28.5754 15.0355C28.5754 16.5995 27.4747 17.8777 26.1031 18.4327V19.2568C26.1031 19.9968 25.5612 20.4509 25.0024 20.4509C24.4606 20.4509 23.7155 19.8118 23.7155 19.2568V18.4327C22.3439 17.9786 21.3279 16.5995 21.3279 15.0355C21.3279 14.2955 21.8697 13.8414 22.4285 13.8414C23.072 13.8414 23.6139 14.4805 23.6139 15.0355C23.6139 15.6745 24.1558 16.3136 24.9008 16.3136C25.5443 16.3136 26.0015 15.6745 26.0015 15.0355C26.0015 14.2955 25.0871 13.6564 24.0711 12.9164C22.7841 11.9914 21.2262 10.8982 21.2262 8.98091C21.2262 7.33273 22.2423 6.03773 23.6139 5.49955V4.67545C23.6308 4.03636 24.1727 3.58227 24.9178 3.58227ZM17.3993 19.2568L14.5544 29.8018L13.9109 27.3295C13.7416 26.6905 13.2167 26.3373 12.6917 26.3373C12.3869 26.3373 12.0652 26.455 11.8112 26.6905L4.02173 34.4941L2.27757 32.8459L10.067 25.0423C10.7952 24.3023 10.4396 23.1082 9.52514 22.9232L7.01897 22.2L17.3993 19.2568ZM25.0024 0C18.3137 0 12.9796 5.41545 12.9796 12.0082C12.9796 14.1273 13.4368 16.0445 14.4528 17.7936L2.15903 21.3759C1.05835 21.645 1.05835 23.3941 2.15903 23.6632L7.01897 24.8573L0.68581 31.1809C-0.228603 32.1059 -0.228603 33.7541 0.68581 34.6623L2.42997 36.3105C2.88718 36.7645 3.51372 37 4.12333 37C4.74987 37 5.35948 36.7645 5.81669 36.3105L12.1498 30.0709L13.4368 34.8473C13.6231 35.4527 14.1141 35.7723 14.6052 35.7723C15.0794 35.7723 15.5535 35.4695 15.7228 34.8473L19.2958 22.5532C20.9384 23.4782 22.9704 24.1173 24.9855 24.1173C31.6743 24.1173 37.0084 18.7018 37.0084 12.0082C36.9237 5.41545 31.5219 0 25.0024 0Z" fill="#EC4C93"/>
</svg>
