<svg width="41" height="41" viewBox="0 0 41 41" fill="none" xmlns="http://www.w3.org/2000/svg">
<path d="M23.1152 32.6844L32.6825 23.1162" stroke="#EC4C93" stroke-width="3" stroke-linecap="round" stroke-linejoin="round"/>
<path d="M17.8837 23.1162L8.31641 32.6844" stroke="#EC4C93" stroke-width="3" stroke-linecap="round" stroke-linejoin="round"/>
<path d="M23.1152 17.8841L32.6825 8.31592" stroke="#EC4C93" stroke-width="3" stroke-linecap="round" stroke-linejoin="round"/>
<path d="M8.31641 17.8841L17.8837 8.31592" stroke="#EC4C93" stroke-width="3" stroke-linecap="round" stroke-linejoin="round"/>
<path d="M9.4 5.7C9.4 6.6813 9.01018 7.62241 8.3163 8.3163C7.62241 9.01018 6.6813 9.4 5.7 9.4C4.7187 9.4 3.77759 9.01018 3.0837 8.3163C2.38982 7.62241 2 6.6813 2 5.7C2 4.7187 2.38982 3.77759 3.0837 3.0837C3.77759 2.38982 4.7187 2 5.7 2C6.6813 2 7.62241 2.38982 8.3163 3.0837C9.01018 3.77759 9.4 4.7187 9.4 5.7V5.7Z" stroke="#EC4C93" stroke-width="3" stroke-linecap="round" stroke-linejoin="round"/>
<path d="M24.2008 5.7C24.2008 6.6813 23.811 7.62241 23.1171 8.3163C22.4232 9.01018 21.4821 9.4 20.5008 9.4C19.5195 9.4 18.5784 9.01018 17.8845 8.3163C17.1906 7.62241 16.8008 6.6813 16.8008 5.7C16.8008 4.7187 17.1906 3.77759 17.8845 3.0837C18.5784 2.38982 19.5195 2 20.5008 2C21.4821 2 22.4232 2.38982 23.1171 3.0837C23.811 3.77759 24.2008 4.7187 24.2008 5.7V5.7Z" stroke="#EC4C93" stroke-width="3" stroke-linecap="round" stroke-linejoin="round"/>
<path d="M38.9996 5.7C38.9996 6.6813 38.6098 7.62241 37.9159 8.3163C37.222 9.01018 36.2809 9.4 35.2996 9.4C34.3183 9.4 33.3772 9.01018 32.6833 8.3163C31.9894 7.62241 31.5996 6.6813 31.5996 5.7C31.5996 4.7187 31.9894 3.77759 32.6833 3.0837C33.3772 2.38982 34.3183 2 35.2996 2C36.2809 2 37.222 2.38982 37.9159 3.0837C38.6098 3.77759 38.9996 4.7187 38.9996 5.7V5.7Z" stroke="#EC4C93" stroke-width="3" stroke-linecap="round" stroke-linejoin="round"/>
<path d="M38.9996 20.4998C38.9996 21.4811 38.6098 22.4222 37.9159 23.1161C37.222 23.81 36.2809 24.1998 35.2996 24.1998C34.3183 24.1998 33.3772 23.81 32.6833 23.1161C31.9894 22.4222 31.5996 21.4811 31.5996 20.4998C31.5996 19.5185 31.9894 18.5774 32.6833 17.8835C33.3772 17.1896 34.3183 16.7998 35.2996 16.7998C36.2809 16.7998 37.222 17.1896 37.9159 17.8835C38.6098 18.5774 38.9996 19.5185 38.9996 20.4998Z" stroke="#EC4C93" stroke-width="3" stroke-linecap="round" stroke-linejoin="round"/>
<path d="M38.9996 35.3001C38.9996 36.2814 38.6098 37.2225 37.9159 37.9164C37.222 38.6103 36.2809 39.0001 35.2996 39.0001C34.3183 39.0001 33.3772 38.6103 32.6833 37.9164C31.9894 37.2225 31.5996 36.2814 31.5996 35.3001C31.5996 34.3188 31.9894 33.3777 32.6833 32.6838C33.3772 31.9899 34.3183 31.6001 35.2996 31.6001C36.2809 31.6001 37.222 31.9899 37.9159 32.6838C38.6098 33.3777 38.9996 34.3188 38.9996 35.3001V35.3001Z" stroke="#EC4C93" stroke-width="3" stroke-linecap="round" stroke-linejoin="round"/>
<path d="M24.2008 35.3001C24.2008 36.2814 23.811 37.2225 23.1171 37.9164C22.4232 38.6103 21.4821 39.0001 20.5008 39.0001C19.5195 39.0001 18.5784 38.6103 17.8845 37.9164C17.1906 37.2225 16.8008 36.2814 16.8008 35.3001C16.8008 34.3188 17.1906 33.3777 17.8845 32.6838C18.5784 31.9899 19.5195 31.6001 20.5008 31.6001C21.4821 31.6001 22.4232 31.9899 23.1171 32.6838C23.811 33.3777 24.2008 34.3188 24.2008 35.3001V35.3001Z" stroke="#EC4C93" stroke-width="3" stroke-linecap="round" stroke-linejoin="round"/>
<path d="M9.4 35.3001C9.4 36.2814 9.01018 37.2225 8.3163 37.9164C7.62241 38.6103 6.6813 39.0001 5.7 39.0001C4.7187 39.0001 3.77759 38.6103 3.0837 37.9164C2.38982 37.2225 2 36.2814 2 35.3001C2 34.3188 2.38982 33.3777 3.0837 32.6838C3.77759 31.9899 4.7187 31.6001 5.7 31.6001C6.6813 31.6001 7.62241 31.9899 8.3163 32.6838C9.01018 33.3777 9.4 34.3188 9.4 35.3001V35.3001Z" stroke="#EC4C93" stroke-width="3" stroke-linecap="round" stroke-linejoin="round"/>
<path d="M9.4 20.4998C9.4 21.4811 9.01018 22.4222 8.3163 23.1161C7.62241 23.81 6.6813 24.1998 5.7 24.1998C4.7187 24.1998 3.77759 23.81 3.0837 23.1161C2.38982 22.4222 2 21.4811 2 20.4998C2 19.5185 2.38982 18.5774 3.0837 17.8835C3.77759 17.1896 4.7187 16.7998 5.7 16.7998C6.6813 16.7998 7.62241 17.1896 8.3163 17.8835C9.01018 18.5774 9.4 19.5185 9.4 20.4998Z" stroke="#EC4C93" stroke-width="3" stroke-linecap="round" stroke-linejoin="round"/>
<path d="M24.2008 20.4998C24.2008 21.4811 23.811 22.4222 23.1171 23.1161C22.4232 23.81 21.4821 24.1998 20.5008 24.1998C19.5195 24.1998 18.5784 23.81 17.8845 23.1161C17.1906 22.4222 16.8008 21.4811 16.8008 20.4998C16.8008 19.5185 17.1906 18.5774 17.8845 17.8835C18.5784 17.1896 19.5195 16.7998 20.5008 16.7998C21.4821 16.7998 22.4232 17.1896 23.1171 17.8835C23.811 18.5774 24.2008 19.5185 24.2008 20.4998V20.4998Z" stroke="#EC4C93" stroke-width="3" stroke-linecap="round" stroke-linejoin="round"/>
</svg>
