<svg width="347" height="100" viewBox="0 0 347 100" fill="none" xmlns="http://www.w3.org/2000/svg">
<rect width="346.603" height="100" rx="5" fill="#C02030"/>
<path d="M216.125 78.1572H129.438V80.4287H216.125V78.1572Z" fill="white"/>
<path d="M216.125 56.2002H129.438V58.4716H216.125V56.2002Z" fill="white"/>
<path d="M221.643 81.9429H123.922V84.2143H221.643V81.9429Z" fill="white"/>
<path d="M227.947 85.7285H117.617V87.9999H227.947V85.7285Z" fill="white"/>
<path d="M196.427 30.457H194.062V53.9285H196.427V30.457Z" fill="white"/>
<path d="M152.294 30.457H149.93V53.9285H152.294V30.457Z" fill="white"/>
<path d="M204.81 20.6143H209.192L199.002 28.1857H146.666L136.492 20.6143H141.095L147.73 25.1571H197.844L204.81 20.6143Z" fill="white"/>
<path d="M161.204 12.6945L149.855 23.6428H154.805L159.163 19.0999H186.666L191.095 23.6428H195.824L184.625 12.2856H179.7L183.553 16.0714H162.275L165.932 12.4522L161.432 12.4219L161.204 12.6945Z" fill="white"/>
<path d="M157.023 52.414H188.546V31.9712H157.023V52.414ZM178.79 45.3423C179.105 44.6912 179.57 44.0855 179.649 43.3283H186.97V50.453L178.79 45.3423ZM177.135 45.6755C176.276 46.7355 174.999 47.4699 173.541 47.6365C173.321 47.6592 173.1 47.6743 172.879 47.6743C172.635 47.6743 172.391 47.6592 172.147 47.6289C170.744 47.4472 169.506 46.743 168.663 45.7285C168.372 45.3802 168.127 44.994 167.938 44.5852C167.733 44.1385 167.591 43.6615 167.521 43.1618C167.489 42.9422 167.473 42.7226 167.473 42.4955C167.473 42.2683 167.489 42.0488 167.521 41.8292C167.599 41.2159 167.796 40.6405 168.08 40.1105C168.293 39.7092 168.561 39.3382 168.876 39.0126C169.711 38.1343 170.854 37.5286 172.139 37.362C172.375 37.3318 172.619 37.3166 172.872 37.3166C173.092 37.3166 173.321 37.3318 173.534 37.3545C174.873 37.5135 176.063 38.1419 176.914 39.0656C177.222 39.3988 177.482 39.7698 177.695 40.1786C177.963 40.6859 178.144 41.2462 178.223 41.8368C178.254 42.0563 178.27 42.2759 178.27 42.503C178.27 42.7302 178.254 42.9573 178.223 43.1693L177.836 44.5322C177.655 44.9335 177.419 45.3272 177.135 45.6755ZM166.985 39.3685C166.567 40.1105 166.189 41.0569 166.094 41.814H158.6V34.1518L166.985 39.3685ZM158.6 43.3283H166.094C166.173 44.0855 166.496 44.7442 166.827 45.4105L158.6 50.453V43.3283ZM186.97 41.814H179.649C179.554 41.0569 179.042 40.1559 178.64 39.429L186.97 34.1518V41.814ZM178.136 38.2631C177.017 36.9683 175.149 36.1506 173.573 35.9765V33.4855H185.796L178.136 38.2631ZM171.997 33.4855V35.984C170.421 36.1658 168.703 36.9608 167.607 38.2101L160.089 33.4855H171.997ZM167.394 46.4099C168.498 47.7955 170.421 48.8025 171.997 48.9993V50.8998H160.089L167.394 46.4099ZM173.573 50.8998V49.0069C175.149 48.8252 177.222 47.7955 178.341 46.3569L185.788 50.8998H173.573Z" fill="white"/>
<path d="M129.438 74.6589V62.0146H132.314C133.094 62.0146 133.669 62.2342 134.032 62.6809C134.387 63.1352 134.56 63.9075 134.56 64.9902C134.56 65.8004 134.497 66.4061 134.371 66.7998C134.213 67.3222 133.898 67.7159 133.425 67.9658C133.914 68.0945 134.268 68.4201 134.473 68.9349C134.686 69.4498 134.789 70.1085 134.789 70.9111C134.789 72.0468 134.623 72.9326 134.284 73.5838C133.898 74.3031 133.268 74.6665 132.385 74.6665H129.438V74.6589ZM131.518 64.1725V67.0194H131.904C132.196 67.0194 132.401 66.8755 132.511 66.5878C132.59 66.3531 132.629 66.0048 132.629 65.5429C132.629 65.0659 132.582 64.7252 132.495 64.4981C132.409 64.2785 132.235 64.1649 131.983 64.1649H131.518V64.1725ZM131.518 69.0788V72.5086H131.951C132.259 72.5086 132.464 72.3951 132.574 72.1755C132.669 71.9332 132.716 71.4714 132.716 70.7824C132.716 70.2296 132.676 69.8359 132.606 69.5936C132.495 69.2454 132.29 69.0788 131.991 69.0788H131.518Z" fill="white"/>
<path d="M135.324 74.6589L136.995 62.0146H139.753L141.448 74.6589H139.272L139.075 72.4102H137.618L137.405 74.6589H135.324ZM137.838 70.1615H138.878L138.39 63.9756L137.838 70.1615Z" fill="white"/>
<path d="M141.793 71.2064V65.4673C141.793 64.271 142.045 63.3549 142.55 62.7189C143.022 62.1132 143.669 61.8179 144.472 61.8179C145.268 61.8179 145.915 62.1283 146.411 62.7492C146.9 63.37 147.144 64.271 147.144 65.4673V66.6333H145.063V65.2099C145.063 64.907 145.04 64.6647 145 64.483C144.906 64.2029 144.732 64.059 144.472 64.059C144.22 64.059 144.047 64.1953 143.952 64.4679C143.897 64.6874 143.873 64.9373 143.873 65.2099V71.4563C143.873 71.8349 143.921 72.1302 144.007 72.3422C144.094 72.5239 144.252 72.6147 144.472 72.6147C144.717 72.6147 144.89 72.4633 144.993 72.168C145.048 71.9484 145.071 71.7137 145.071 71.4563V69.6013H147.152V71.1989C147.152 72.3194 146.908 73.2053 146.427 73.8564C145.946 74.5227 145.292 74.8559 144.472 74.8559C143.653 74.8559 143.007 74.5303 142.526 73.8716C142.037 73.228 141.793 72.3346 141.793 71.2064Z" fill="white"/>
<path d="M148.066 74.6589V62.0146H150.147V66.7544H151.345V62.0146H153.425V74.6589H151.345V69.2756H150.147V74.6589H148.066Z" fill="white"/>
<path d="M157.145 71.2064V65.4673C157.145 64.271 157.397 63.3549 157.901 62.7189C158.374 62.1132 159.02 61.8179 159.824 61.8179C160.62 61.8179 161.243 62.0374 161.692 62.469C162.235 62.9914 162.503 63.8092 162.503 64.9146V66.3229H160.525V65.0584C160.525 64.3922 160.305 64.059 159.871 64.059C159.651 64.059 159.477 64.2029 159.343 64.483C159.264 64.7177 159.225 64.96 159.225 65.2099V71.4563C159.225 71.8349 159.272 72.1302 159.359 72.3422C159.446 72.5239 159.603 72.6147 159.824 72.6147C160.265 72.6147 160.486 72.2967 160.486 71.6607V70.0329H159.753V67.6933H162.503V74.6514H160.683V73.6217C160.297 74.4394 159.761 74.8483 159.06 74.8483C158.39 74.8483 157.885 74.4773 157.546 73.7429C157.279 73.1447 157.145 72.2967 157.145 71.2064Z" fill="white"/>
<path d="M165.573 62.0146H163.492V74.6589H165.573V62.0146Z" fill="white"/>
<path d="M166.18 74.6589L167.85 62.0146H170.609L172.303 74.6589H170.128L169.931 72.4102H168.473L168.26 74.6589H166.18ZM168.686 70.1615H169.726L169.237 63.9756L168.686 70.1615Z" fill="white"/>
<path d="M175.301 64.4602V62.0146H180.069V64.4602H178.721V74.6589H176.641V64.4602H175.301Z" fill="white"/>
<path d="M180.656 74.6589V62.0146H183.407C184.337 62.0146 185.006 62.2418 185.416 62.6961C185.834 63.1579 186.039 63.9454 186.039 65.0735C186.039 65.8836 185.968 66.4894 185.834 66.9058C185.653 67.4131 185.306 67.7841 184.786 68.0036C185.164 68.0945 185.456 68.3292 185.661 68.7154C185.881 69.0712 185.992 69.5179 185.992 70.0479V72.2815V73.1749V73.5232C185.992 73.6444 185.999 73.7655 186.015 73.8866C186.015 74.1971 186.078 74.4545 186.204 74.6665H184.147C184.084 74.5605 184.021 74.3106 183.966 73.9169C183.935 73.5838 183.919 73.2658 183.919 72.9705C183.911 72.6752 183.911 72.4405 183.911 72.2739V70.2448C183.911 69.8965 183.848 69.6391 183.73 69.4574C183.612 69.2908 183.407 69.1999 183.123 69.1999H182.737V74.6589H180.656ZM182.737 64.1725V67.0572H183.241C183.541 67.0572 183.753 66.9134 183.864 66.6256L183.927 66.2471L183.95 65.5657C183.95 65.0735 183.919 64.7252 183.848 64.5359C183.738 64.2936 183.501 64.1725 183.139 64.1725H182.737Z" fill="white"/>
<path d="M186.137 74.6589L187.807 62.0146H190.566L192.26 74.6589H190.085L189.888 72.4102H188.43L188.217 74.6589H186.137ZM188.651 70.1615H189.691L189.202 63.9756L188.651 70.1615Z" fill="white"/>
<path d="M192.863 74.6589V62.0146H196.142L196.733 68.2838L197.34 62.0146H200.61V74.6589H198.608V64.8388L197.418 74.6589H196.063L194.897 64.8388L194.873 74.6589H192.863Z" fill="white"/>
<path d="M204.395 74.6589V62.0146H206.475V66.7544H207.673V62.0146H209.753V74.6589H207.673V69.2756H206.475V74.6589H204.395Z" fill="white"/>
<path d="M210.676 71.2064V65.4673C210.676 64.271 210.928 63.3549 211.432 62.7189C211.905 62.1207 212.551 61.8179 213.355 61.8179C214.151 61.8179 214.797 62.1283 215.294 62.7492C215.782 63.37 216.027 64.271 216.027 65.4673V71.2064C216.027 72.327 215.782 73.2129 215.302 73.864C214.821 74.5303 214.167 74.8634 213.347 74.8634C212.528 74.8634 211.882 74.5379 211.401 73.8792C210.92 73.228 210.676 72.3346 210.676 71.2064ZM212.756 65.2099V71.4563C212.756 71.8349 212.804 72.1302 212.89 72.3422C212.977 72.5239 213.135 72.6147 213.355 72.6147C213.6 72.6147 213.773 72.4633 213.875 72.168C213.931 71.9484 213.954 71.7137 213.954 71.4563V65.2099C213.954 64.907 213.931 64.6647 213.891 64.483C213.797 64.2029 213.623 64.059 213.363 64.059C213.111 64.059 212.938 64.1953 212.843 64.4679C212.78 64.695 212.756 64.9373 212.756 65.2099Z" fill="white"/>
</svg>
