<svg width="347" height="100" viewBox="0 0 347 100" fill="none" xmlns="http://www.w3.org/2000/svg">
<rect x="0.396484" width="346.604" height="100" rx="5" fill="url(#paint0_linear)"/>
<path d="M173.178 34.3589L179.469 40.4029L185.762 34.3589L179.469 28.3125L173.178 34.3589Z" fill="#02A4AE"/>
<path d="M198.346 34.3589L192.055 28.3125L185.762 34.3589L192.055 40.4029L185.762 46.4493L192.055 52.4956L198.346 46.4493L204.639 40.4029L198.346 34.3589Z" fill="#02A4AE"/>
<path d="M179.469 64.586L185.762 58.5397L179.469 52.4956L173.178 58.5397V70.6324L179.469 64.586Z" fill="#02A4AE"/>
<path d="M185.762 22.2662L179.469 16.2221L173.178 10.1758V22.2662L179.469 28.3125L185.762 22.2662Z" fill="#02A4AE"/>
<path d="M154.301 40.4029L160.594 34.3566L154.301 28.3102L141.717 40.4006L154.301 52.491L160.594 46.4447L154.301 40.4029ZM166.885 16.2221L160.592 22.2685L166.885 28.3149L173.179 22.2685V10.1758L166.885 16.2221ZM160.592 58.5397L166.885 64.5861L173.179 70.6324V58.542L166.885 52.4957L160.592 58.5397Z" fill="url(#paint1_linear)"/>
<path d="M115.981 79.2036C119.974 79.2036 121.979 80.6603 122.236 83.4372H119.618C119.375 81.8834 118.13 81.2776 115.984 81.2776C113.365 81.2776 112.263 82.1725 112.263 84.1378C112.263 86.117 113.38 87.0257 115.984 87.0257C118.116 87.0257 119.375 86.4061 119.618 84.8407H122.236C121.979 87.6315 119.974 89.1021 115.981 89.1021C111.575 89.1021 109.686 87.3425 109.686 84.1401C109.686 80.9493 111.575 79.2036 115.981 79.2036Z" fill="black"/>
<path d="M123.025 84.1396C123.025 80.9511 124.915 79.2031 129.321 79.2031C133.713 79.2031 135.617 80.9627 135.617 84.1396C135.617 87.3304 133.713 89.1039 129.321 89.1039C124.912 89.1016 123.025 87.342 123.025 84.1396ZM133.042 84.1396C133.042 82.1882 132.012 81.2795 129.321 81.2795C126.631 81.2795 125.6 82.1743 125.6 84.1396C125.6 86.1189 126.645 87.0276 129.321 87.0276C131.997 87.0252 133.042 86.105 133.042 84.1396Z" fill="black"/>
<path d="M146.077 86.1054L147.923 88.9656H144.888L143.271 86.3944H139.122V88.9656H136.547V79.3423H144.417C146.693 79.3423 148.253 80.7319 148.253 82.8753C148.253 84.4406 147.422 85.5967 146.077 86.1054ZM139.122 84.3181H143.702C144.474 84.3181 145.678 84.3181 145.678 82.8753C145.678 81.4186 144.474 81.4186 143.702 81.4186H139.122V84.3181Z" fill="black"/>
<path d="M151.673 81.307V83.2585H159.687V85.0458H151.673V86.9973H159.687V88.9627H149.098V79.3394H159.687V81.3047H151.673V81.307Z" fill="black"/>
<path d="M174.125 79.3394L168.972 88.9627H165.451L160.299 79.3394H163.189L167.211 87.136L171.232 79.3394H174.125Z" fill="black"/>
<path d="M177.315 81.307V83.2585H185.329V85.0458H177.315V86.9973H185.329V88.9627H174.74V79.3394H185.329V81.3047H177.315V81.307Z" fill="black"/>
<path d="M188.69 85.6518C188.69 86.6692 189.549 87.1362 192.812 87.1362C195.518 87.1362 196.333 86.8472 196.333 86.0911C196.333 85.2934 195.761 85.157 192.512 85.0044C188.146 84.8125 186.416 84.1512 186.416 81.9939C186.416 79.876 188.663 79.2031 192.413 79.2031C196.191 79.2031 198.48 80.1095 198.48 82.4887H195.905C195.905 81.4298 194.803 81.1685 192.127 81.1685C189.595 81.1685 188.993 81.402 188.993 82.1165C188.993 82.8587 189.595 82.9974 192.514 83.1616C196.463 83.3674 198.911 83.5731 198.911 86.0079C198.911 88.579 196.379 89.1016 192.67 89.1016C188.562 89.1016 186.117 88.4287 186.117 85.6495H188.69V85.6518Z" fill="black"/>
<path d="M211.212 81.4157H206.346V88.965H203.771V81.4157H198.904V79.3394H211.212V81.4157Z" fill="black"/>
<path d="M211.443 84.1396C211.443 80.9511 213.333 79.2031 217.739 79.2031C222.131 79.2031 224.035 80.9627 224.035 84.1396C224.035 87.3304 222.131 89.1039 217.739 89.1039C213.333 89.1016 211.443 87.342 211.443 84.1396ZM221.462 84.1396C221.462 82.1882 220.432 81.2795 217.742 81.2795C215.051 81.2795 214.021 82.1743 214.021 84.1396C214.021 86.1189 215.065 87.0276 217.742 87.0276C220.415 87.0252 221.462 86.105 221.462 84.1396Z" fill="black"/>
<path d="M234.493 86.1054L236.339 88.9656H233.304L231.687 86.3944H227.538V88.9656H224.963V79.3423H232.833C235.109 79.3423 236.669 80.7319 236.669 82.8753C236.669 84.4406 235.838 85.5967 234.493 86.1054ZM227.538 84.3181H232.118C232.89 84.3181 234.094 84.3181 234.094 82.8753C234.094 81.4186 232.89 81.4186 232.118 81.4186H227.538V84.3181Z" fill="black"/>
<defs>
<linearGradient id="paint0_linear" x1="4.12914" y1="4.1841" x2="258.619" y2="209.532" gradientUnits="userSpaceOnUse">
<stop stop-color="white"/>
<stop offset="1" stop-color="white"/>
</linearGradient>
<linearGradient id="paint1_linear" x1="154.163" y1="8.66993" x2="165.416" y2="70.3673" gradientUnits="userSpaceOnUse">
<stop stop-color="#02A4AE"/>
<stop offset="1" stop-color="#173E4A"/>
</linearGradient>
</defs>
</svg>
