<svg width="56" height="54" viewBox="0 0 56 54" fill="none" xmlns="http://www.w3.org/2000/svg">
<path d="M38.0494 40.9355H51.741C50.5913 25.7632 44.0591 16.3394 35.6804 10.7652L39.4952 2.43871C39.6105 2.1745 39.6585 1.8858 39.6347 1.5985C39.611 1.31119 39.5163 1.03427 39.3592 0.792564C39.2021 0.550857 38.9875 0.35192 38.7345 0.213594C38.4816 0.0752673 38.1983 0.00187553 37.91 0H14.0281C13.7398 0.00187553 13.4565 0.0752673 13.2036 0.213594C12.9507 0.35192 12.736 0.550857 12.5789 0.792564C12.4218 1.03427 12.3272 1.31119 12.3034 1.5985C12.2797 1.8858 12.3276 2.1745 12.4429 2.43871L14.5333 6.96774H32.1617L30.5939 10.4516H27.3713C28.3555 13.098 29.079 15.8343 29.5313 18.6213C29.8244 20.3501 30.0105 22.0954 30.0888 23.8471L27.3365 25.7806C27.344 23.5275 27.1575 21.2779 26.7791 19.0568C26.2977 16.1007 25.4674 13.2121 24.3055 10.4516H22.5636C20.956 12.4828 19.5115 14.6379 18.2436 16.8968C17.2213 18.8344 16.3534 20.8497 15.6481 22.9239L13.2617 21.3387C13.9582 19.334 14.8145 17.3884 15.8223 15.5206C16.8406 13.7692 17.9572 12.0768 19.1668 10.4516H16.1184L16.2578 10.7477C7.02553 16.8968 0.00552818 27.6968 0.00552818 45.7258C-0.0180109 46.1048 0.0337786 46.4847 0.157904 46.8435C0.28203 47.2024 0.476032 47.5331 0.728702 47.8165C0.981373 48.1 1.2877 48.3305 1.63 48.4949C1.97229 48.6593 2.34376 48.7542 2.72295 48.7742H16.6584C16.0601 48.1514 15.6469 47.3743 15.4653 46.53C15.2836 45.6857 15.3406 44.8074 15.63 43.9937C15.9193 43.1799 16.4295 42.4628 17.1034 41.9227C17.7773 41.3825 18.5883 41.0407 19.4455 40.9355C19.0284 40.228 18.806 39.4226 18.801 38.6013C18.801 37.3539 19.2965 36.1576 20.1786 35.2756C21.0606 34.3936 22.2569 33.8981 23.5042 33.8981H33.9558C35.2032 33.8981 36.3995 34.3936 37.2815 35.2756C38.1636 36.1576 38.6591 37.3539 38.6591 38.6013C38.668 39.4198 38.4575 40.2259 38.0494 40.9355Z" fill="#EC4C93"/>
<path d="M32.3183 45.2903C32.3183 44.8283 32.1348 44.3852 31.8081 44.0585C31.4814 43.7319 31.0384 43.5483 30.5764 43.5483H20.1247C19.6628 43.5483 19.2197 43.7319 18.893 44.0585C18.5663 44.3852 18.3828 44.8283 18.3828 45.2903C18.3828 45.7523 18.5663 46.1953 18.893 46.522C19.2197 46.8487 19.6628 47.0322 20.1247 47.0322H30.5764C31.0384 47.0322 31.4814 46.8487 31.8081 46.522C32.1348 46.1953 32.3183 45.7523 32.3183 45.2903Z" fill="#EC4C93"/>
<path d="M33.9533 36.5806H23.5017C23.0397 36.5806 22.5966 36.7641 22.27 37.0908C21.9433 37.4174 21.7598 37.8605 21.7598 38.3225C21.7598 38.7845 21.9433 39.2276 22.27 39.5542C22.5966 39.8809 23.0397 40.0644 23.5017 40.0644H33.9533C34.4153 40.0644 34.8584 39.8809 35.185 39.5542C35.5117 39.2276 35.6953 38.7845 35.6953 38.3225C35.6953 37.8605 35.5117 37.4174 35.185 37.0908C34.8584 36.7641 34.4153 36.5806 33.9533 36.5806Z" fill="#EC4C93"/>
<path d="M33.0158 50.5161H22.5642C22.1022 50.5161 21.6591 50.6996 21.3325 51.0263C21.0058 51.353 20.8223 51.7961 20.8223 52.258C20.8223 52.72 21.0058 53.1631 21.3325 53.4898C21.6591 53.8165 22.1022 54 22.5642 54H33.0158C33.4778 54 33.9209 53.8165 34.2476 53.4898C34.5742 53.1631 34.7577 52.72 34.7577 52.258C34.7577 51.7961 34.5742 51.353 34.2476 51.0263C33.9209 50.6996 33.4778 50.5161 33.0158 50.5161Z" fill="#EC4C93"/>
<path d="M51.6523 50.5161H39.4587C38.9967 50.5161 38.5537 50.6996 38.227 51.0263C37.9003 51.353 37.7168 51.7961 37.7168 52.258C37.7168 52.72 37.9003 53.1631 38.227 53.4898C38.5537 53.8165 38.9967 54 39.4587 54H51.6523C52.1143 54 52.5573 53.8165 52.884 53.4898C53.2107 53.1631 53.3942 52.72 53.3942 52.258C53.3942 51.7961 53.2107 51.353 52.884 51.0263C52.5573 50.6996 52.1143 50.5161 51.6523 50.5161Z" fill="#EC4C93"/>
<path d="M53.3945 43.5483H41.2009C40.7389 43.5483 40.2959 43.7319 39.9692 44.0585C39.6425 44.3852 39.459 44.8283 39.459 45.2903C39.459 45.7523 39.6425 46.1953 39.9692 46.522C40.2959 46.8487 40.7389 47.0322 41.2009 47.0322H53.3945C53.8565 47.0322 54.2995 46.8487 54.6262 46.522C54.9529 46.1953 55.1364 45.7523 55.1364 45.2903C55.1364 44.8283 54.9529 44.3852 54.6262 44.0585C54.2995 43.7319 53.8565 43.5483 53.3945 43.5483Z" fill="#EC4C93"/>
</svg>
