<svg width="44" height="49" viewBox="0 0 44 49" fill="none" xmlns="http://www.w3.org/2000/svg">
<path d="M44 26.95C44 32.798 41.6821 38.4065 37.5563 42.5417C33.4305 46.6769 27.8348 49 22 49C16.1652 49 10.5695 46.6769 6.44365 42.5417C2.31785 38.4065 0 32.798 0 26.95L0.0733333 5.9535C6.55111 2.156 14.08 0 22.1222 0C30.0667 0 37.5467 2.1315 44 5.831V26.95ZM24.4444 43.9285C32.7311 42.728 39.1111 35.525 39.1111 26.95V8.7955C33.9778 6.2965 28.2089 4.9 22.1222 4.9C15.8889 4.9 9.97333 6.37 4.74222 8.967L4.88889 26.95C4.88889 35.525 11.3178 42.728 19.5556 43.9285V39.2H24.4444V43.9285ZM19.5556 34.3H12.2222L7.33333 26.95L14.6667 29.4H17.1111L19.5556 26.95H24.4444L26.8889 29.4H29.3333L36.6667 26.95L31.7778 34.3H24.4444L22 31.85L19.5556 34.3ZM7.33333 17.2235C8.89778 15.68 11 14.8225 13.4444 14.8225C15.7667 14.8225 17.9422 15.68 19.5556 17.2235C17.9422 18.7425 15.7667 19.6 13.4444 19.6C11 19.6 8.89778 18.7425 7.33333 17.2235ZM24.4444 17.2235C26.0089 15.68 28.1111 14.8225 30.5556 14.8225C32.8778 14.8225 35.0533 15.68 36.6667 17.2235C35.0533 18.7425 32.8778 19.6 30.5556 19.6C28.1111 19.6 26.0089 18.7425 24.4444 17.2235Z" fill="#EC4C93"/>
</svg>
