<svg width="50" height="50" viewBox="0 0 50 50" fill="none" xmlns="http://www.w3.org/2000/svg">
<path d="M37.5 50V45H45V37.5H50V46.25C50 47.225 49.6 48.1 48.85 48.85C48.1 49.6 47.225 50 46.25 50H37.5ZM12.5 50H3.75C2.775 50 1.9 49.6 1.15 48.85C0.4 48.1 0 47.225 0 46.25V37.5H5V45H12.5V50ZM37.5 0H46.25C47.225 0 48.1 0.4 48.85 1.15C49.6 1.9 50 2.775 50 3.75V12.5H45V5H37.5V0ZM12.5 0V5H5V12.5H0V3.75C0 2.775 0.4 1.9 1.15 1.15C1.9 0.4 2.775 0 3.75 0H12.5ZM27.5 38.125L37.5 32.375V20.9L27.5 26.65V38.125ZM25 22.3L35 16.575L25 10.7L15 16.575L25 22.3ZM12.5 32.375L22.5 38.125V26.65L12.5 20.9V32.375ZM40.575 13.975C41.825 14.775 42.5 15.85 42.5 17.275V33.075C42.5 34.5 41.825 35.575 40.575 36.375L26.875 44.325C25.625 45.125 24.375 45.125 23.125 44.325L9.425 36.375C8.175 35.575 7.5 34.5 7.5 33.075V17.275C7.5 15.85 8.175 14.775 9.425 13.975L23.125 6.025C23.75 5.7 24.375 5.55 25 5.55C25.625 5.55 26.25 5.7 26.875 6.025L40.575 13.975Z" fill="#EC4C93"/>
</svg>
