<svg width="53" height="50" viewBox="0 0 53 50" fill="none" xmlns="http://www.w3.org/2000/svg">
<path d="M47.3687 0C44.4615 0 42.1034 2.35544 42.1034 5.26525V14.7745V34.0769V34.3475C42.0318 37.2493 39.5942 39.5756 36.6472 39.4695C33.8568 39.3687 31.5809 36.8859 31.5809 34.0955V14.7772V5.26525C31.5809 2.35544 29.2228 0 26.3156 0C23.4085 0 21.053 2.35544 21.053 5.26525V14.7745V34.0928C21.053 36.8859 18.7745 39.366 15.9867 39.4668C13.0398 39.5729 10.6021 37.2467 10.5305 34.3448V34.0743V14.7745V5.26525C10.5279 2.35544 8.17241 0 5.26525 0C2.35544 0 0 2.35544 0 5.26525V34.2122C0 36.0584 0.31565 37.8302 0.899204 39.4748C3.06366 45.6048 8.91247 50 15.7904 50C19.8355 50 23.5252 48.4775 26.3156 45.9788C29.1087 48.4775 32.7984 50 36.8435 50C43.7215 50 49.5703 45.6074 51.7347 39.4748C52.3183 37.8302 52.6339 36.0584 52.6339 34.2122V5.26525C52.6339 2.35544 50.2759 0 47.3687 0Z" fill="#B769A0"/>
</svg>
