<svg width="64" height="64" viewBox="0 0 64 64" fill="none" xmlns="http://www.w3.org/2000/svg">
<path fill-rule="evenodd" clip-rule="evenodd" d="M31.6559 0C18.3016 0 6.82894 9.77296 4.27948 22.6114C1.88176 23.3094 0 25.525 0 28.1048V42.825C0 45.7387 2.54948 48.3185 5.46315 48.3185H9.22667C10.2586 48.3185 11.1084 47.4687 11.1084 46.4367V24.1592C11.1084 23.1273 10.2586 22.2775 9.22667 22.2775H8.01261C10.5924 11.4726 20.5171 3.42964 31.6255 3.42964C42.7339 3.42964 52.5069 11.4726 55.0867 22.2775H54.0548C53.0229 22.2775 52.173 23.1273 52.173 24.1592V46.4367C52.173 47.4687 53.0229 48.3185 54.0548 48.3185H55.7545C54.9046 52.598 51.1411 55.8455 46.5278 55.8455H36.7852C35.9354 53.7816 34.0536 52.2337 31.6559 52.2337C28.5905 52.2337 26.0107 54.8136 26.0107 57.7272C26.0107 60.823 28.5905 63.3725 31.6559 63.3725C34.0536 63.3725 36.1175 61.8246 36.7852 59.7607H46.5278C53.205 59.7607 58.5164 54.7832 59.3662 48.2881C61.5818 47.7722 63.3118 45.5566 63.3118 42.9767V28.2566C63.3118 25.525 61.43 23.1273 59.0323 22.6114C56.4828 9.77296 44.8585 0 31.6559 0Z" fill="#EC4C93"/>
<path fill-rule="evenodd" clip-rule="evenodd" d="M30.713 22.733C31.745 22.733 32.5948 23.5525 32.5948 24.554C32.5948 25.7074 31.745 26.3751 30.713 26.3751C29.6811 26.3751 28.8312 25.7074 28.8312 24.554C28.8312 23.5525 29.6811 22.733 30.713 22.733ZM30.713 29.8654C31.745 29.8654 32.5948 30.5332 32.5948 31.6865V39.001C32.5948 40.0026 31.745 40.8221 30.713 40.8221C29.6811 40.8221 28.8312 40.0026 28.8312 39.001V31.6865C28.8312 30.5332 29.6811 29.8654 30.713 29.8654ZM30.8951 15.4185C21.6078 15.4185 14.0201 22.733 14.0201 31.7168C14.0201 34.3877 14.536 37.0282 16.0839 39.517L14.0201 45.6782C13.6862 46.1638 13.6862 46.8315 14.3539 47.4993C14.5967 47.7421 15.1127 47.9545 15.6287 47.9545C15.8411 47.9545 16.0536 47.9242 16.266 47.8028L22.6397 45.7996C25.0374 47.2868 27.9814 47.8028 30.8951 47.8028C40.1825 47.8028 47.9219 40.6703 47.9219 31.6865C47.9219 22.733 40.1825 15.4185 30.8951 15.4185Z" fill="#EC4C93"/>
</svg>
