<svg width="63" height="62" viewBox="0 0 63 62" fill="none" xmlns="http://www.w3.org/2000/svg">
<path fill-rule="evenodd" clip-rule="evenodd" d="M31.6973 17.4727C39.0527 17.4727 44.9991 23.4473 44.9991 30.9436C44.9991 38.13 38.8836 44.2736 31.6973 44.2736C24.2009 44.2736 18.2264 38.2991 18.2264 30.9436C18.2264 23.4473 24.2009 17.4727 31.6973 17.4727ZM28.7945 0C26.4836 0 24.8209 1.69091 24.8209 4.14273V7.66545C22.9891 8.28545 21.2982 8.87727 19.7764 9.80727L17.3245 7.35545C16.5636 6.59454 15.4927 6.2 14.4218 6.2C13.3509 6.2 12.28 6.59454 11.5191 7.35545L7.68636 11.1882C6.16454 12.71 6.16454 15.3309 7.68636 16.8527L10.2791 19.4455C9.20819 20.9673 8.75727 22.6582 8.13727 24.3491H4.47364C2.19091 24.3491 0.5 26.04 0.5 28.3227V33.6773C0.5 35.9882 2.19091 37.82 4.47364 37.82H8.13727C8.75727 39.5109 9.20819 41.2018 10.2791 42.7236L7.68636 45.1754C6.16454 46.6973 6.16454 49.4591 7.68636 50.9809L11.5191 54.8136C12.28 55.5745 13.3509 55.9691 14.4218 55.9691C15.4927 55.9691 16.5636 55.5745 17.3245 54.8136L19.7764 52.3618C21.2982 53.2918 22.9891 53.8836 24.8209 54.3627V58.0264C24.8209 60.3373 26.5118 62 28.7945 62H34.1491C36.46 62 38.1227 60.3091 38.1227 58.0264V54.3627C39.8136 53.9118 41.6455 53.2918 43.1673 52.3618L45.6191 54.8136C46.38 55.5745 47.4227 55.9691 48.4373 55.9691C49.48 55.9691 50.4945 55.5745 51.2555 54.8136L55.0882 50.9809C56.61 49.4591 56.61 46.6973 55.0882 45.1754L52.6364 42.7236C53.5664 41.2018 54.1582 39.5109 54.7782 37.82H58.4418C60.7245 37.82 62.4155 35.9882 62.4155 33.6773V28.3227C62.4155 25.8709 60.4145 24.18 58.4418 24.18H54.7782C54.1582 22.4891 53.5664 20.6573 52.6364 19.1355L55.0882 16.6836C56.61 15.1618 56.61 12.4 55.0882 10.8782L51.2555 7.04545C50.4945 6.28454 49.4518 5.89 48.4373 5.89C47.3946 5.89 46.38 6.28454 45.6191 7.04545L43.1955 9.66636C41.6455 8.59545 39.8136 8.11636 38.1227 7.52454V4.14273C38.1227 1.83182 36.4318 0 34.1491 0H28.7945Z" fill="#EC4C93"/>
</svg>
