<svg width="63" height="63" viewBox="0 0 63 63" fill="none" xmlns="http://www.w3.org/2000/svg">
<path fill-rule="evenodd" clip-rule="evenodd" d="M57.556 18.5811C55.1986 18.5811 55.0465 21.4455 57.556 21.4455H61.0795C61.1302 21.4455 61.1809 21.4455 61.257 21.4455C63.6144 21.4455 63.5637 18.5811 61.0795 18.5811H57.556Z" fill="#EC4C93"/>
<path fill-rule="evenodd" clip-rule="evenodd" d="M1.86358 18.5811C-0.544565 18.5811 -0.696658 21.4455 1.86358 21.4455H5.46311C5.51381 21.4455 5.5645 21.4455 5.6152 21.4455C7.87125 21.4455 7.82056 18.5811 5.46311 18.5811H1.86358Z" fill="#EC4C93"/>
<path fill-rule="evenodd" clip-rule="evenodd" d="M57.0981 2.86426C56.8193 2.86426 56.5151 2.96565 56.2109 3.19379L53.6253 5.06961C52.1804 6.08357 52.9916 8.56776 54.3858 8.56776C54.6393 8.56776 54.9181 8.49171 55.1969 8.31427L57.9093 6.43845C59.3288 5.29775 58.4669 2.86426 57.0981 2.86426Z" fill="#EC4C93"/>
<path fill-rule="evenodd" clip-rule="evenodd" d="M9.36808 31.4575C9.08925 31.4575 8.81042 31.5082 8.50623 31.6603L5.28691 33.5615C3.58854 34.7022 4.60249 37.1864 6.25016 37.1864C6.5797 37.1864 6.9346 37.085 7.31483 36.8568L10.382 34.9557C12.1311 34.0431 11.1172 31.4575 9.36808 31.4575Z" fill="#EC4C93"/>
<path fill-rule="evenodd" clip-rule="evenodd" d="M53.5003 31.4575C51.802 31.4575 50.7626 33.9417 52.6131 34.9557L55.6296 36.8315C56.0099 37.0596 56.3647 37.161 56.6943 37.161C58.3419 37.161 59.3306 34.7529 57.6575 33.7643L54.4636 31.711C54.134 31.5336 53.8045 31.4575 53.5003 31.4575Z" fill="#EC4C93"/>
<path fill-rule="evenodd" clip-rule="evenodd" d="M6.12302 2.86426C4.57674 2.86426 3.58812 5.29775 5.26115 6.43845L8.45511 8.31427C8.81 8.49171 9.13954 8.56776 9.46907 8.56776C11.2435 8.56776 12.1561 6.08357 10.3056 5.06961L7.11163 3.19379C6.75674 2.96565 6.42721 2.86426 6.12302 2.86426Z" fill="#EC4C93"/>
<path fill-rule="evenodd" clip-rule="evenodd" d="M29.7481 15.7417L25.0078 22.6366L32.2829 25.5264C32.7899 25.6785 33.2969 26.4896 33.2969 27.1233V31.458L37.8597 24.5631L30.7367 21.6733C30.0522 21.5212 29.7227 20.8622 29.7227 20.0764V15.7417H29.7481Z" fill="#EC4C93"/>
<path fill-rule="evenodd" clip-rule="evenodd" d="M22.1445 47.1997V51.0274H27.6452C30.0534 51.0274 30.2308 54.8804 27.6452 54.8804H22.1445V56.883C22.1445 60.1783 24.7301 62.916 27.6452 62.916H35.2245C38.3171 62.916 40.7253 60.1783 40.7253 56.883V54.8804H35.2245C32.8164 54.8804 32.639 51.0274 35.2245 51.0274H40.7253V47.1997H22.1445Z" fill="#EC4C93"/>
<path fill-rule="evenodd" clip-rule="evenodd" d="M32.2333 7.70606C33.1966 7.70606 34.1345 8.44118 34.1345 9.53118V19.4172L42.2208 22.3324C42.5503 22.6619 43.0573 23.0168 43.2348 23.5238C43.2348 23.8533 43.2348 24.5377 42.7278 25.07L33.6275 39.9245C33.298 40.6089 32.791 40.7863 32.2841 40.7863H31.7771C30.9406 40.6089 30.611 39.9245 30.611 39.088V29.2019L22.5247 26.1347C22.1952 25.8052 21.6882 25.4503 21.5108 24.9433C21.3333 24.6138 21.5108 23.9293 21.6882 23.5745L30.7885 8.56792C31.1433 7.95955 31.6757 7.70606 32.2333 7.70606ZM32.208 0C30.7378 0 29.2422 0.152093 27.7212 0.481629C19.9645 2.18 13.7287 8.49187 12.2077 16.6796C10.6868 24.5377 13.8808 29.6582 16.2636 33.2324C20.9785 40.7356 18.114 40.7356 19.635 44.3352H44.4008C45.7443 40.761 42.8799 40.761 47.7722 33.0803C50.1297 29.5061 51.9801 26.084 51.9801 20.2791C52.1576 14.1447 49.4452 8.33978 44.9078 4.58815C41.3589 1.59698 36.8976 0 32.208 0Z" fill="#EC4C93"/>
</svg>
