<svg width="51" height="56" viewBox="0 0 51 56" fill="none" xmlns="http://www.w3.org/2000/svg">
<path d="M0 30.7083C0 37.3719 2.64709 43.7625 7.35894 48.4744C12.0708 53.1862 18.4614 55.8333 25.125 55.8333C25.125 49.1698 22.4779 42.7791 17.7661 38.0673C13.0542 33.3554 6.66356 30.7083 0 30.7083ZM6.81167 37.52C12.1438 39.5021 16.3313 43.6896 18.3133 49.0217C15.6814 48.0453 13.2912 46.5122 11.3062 44.5272C9.32115 42.5421 7.78806 40.152 6.81167 37.52ZM25.125 55.8333C31.7886 55.8333 38.1792 53.1862 42.8911 48.4744C47.6029 43.7625 50.25 37.3719 50.25 30.7083C43.5864 30.7083 37.1958 33.3554 32.4839 38.0673C27.7721 42.7791 25.125 49.1698 25.125 55.8333ZM31.8808 49.0496C32.8375 46.3833 34.3723 43.9617 36.3754 41.9587C38.3784 39.9557 40.7999 38.4208 43.4663 37.4642C42.4839 40.1159 40.94 42.5241 38.9404 44.5237C36.9408 46.5233 34.5326 48.0672 31.8808 49.0496ZM25.125 33.5C29.5674 33.5 33.8278 31.7353 36.969 28.594C40.1103 25.4528 41.875 21.1924 41.875 16.75V2.79167C39.8146 2.77422 37.7692 3.14352 35.845 3.88042C34.3096 4.5225 32.9417 5.47167 31.7971 6.67208L25.125 0L18.4529 6.67208C17.3083 5.47167 15.9404 4.5225 14.405 3.88042C12.4808 3.14352 10.4354 2.77422 8.375 2.79167V16.75C8.375 21.1924 10.1397 25.4528 13.281 28.594C16.4222 31.7353 20.6826 33.5 25.125 33.5ZM13.9583 10.0779L18.3412 14.6842L25.125 7.90042L31.9088 14.6842L36.2917 10.0779V16.75C36.2917 19.7116 35.1152 22.5519 33.021 24.646C30.9269 26.7402 28.0866 27.9167 25.125 27.9167C22.1634 27.9167 19.3231 26.7402 17.229 24.646C15.1348 22.5519 13.9583 19.7116 13.9583 16.75V10.0779Z" fill="#EC4C93"/>
</svg>
