<svg width="61" height="63" viewBox="0 0 61 63" fill="none" xmlns="http://www.w3.org/2000/svg">
<path fill-rule="evenodd" clip-rule="evenodd" d="M30.2705 0C25.9768 0 22.4805 3.58831 22.4805 7.85134C22.4805 12.1144 25.9461 15.5493 30.2705 15.5493C34.5642 15.5493 38.0605 12.0837 38.0605 7.85134C38.0605 3.58831 34.5642 0 30.2705 0Z" fill="#EC4C93"/>
<path fill-rule="evenodd" clip-rule="evenodd" d="M16.0707 29.9026C17.6655 29.9026 18.4322 31.8348 17.3281 32.9696C16.9601 33.3376 16.5307 33.4909 16.1014 33.4909C15.1813 33.4909 14.3226 32.7855 14.3226 31.6815C14.2919 30.7 15.0893 29.9026 16.0707 29.9026ZM12.5437 15.5801C11.5623 15.5801 10.7649 16.3775 10.7649 17.3589V23.7381C7.72866 26.253 5.4898 29.6573 4.41638 33.4909H1.77882C0.797402 33.4909 0 34.2883 0 35.3004V46.0654C0 47.0468 0.797402 47.8748 1.77882 47.8748H5.82717C7.69799 51.5552 10.6729 54.5607 14.3226 56.4316V60.5413C14.3226 61.5227 15.12 62.3201 16.1014 62.3201H23.186C24.1674 62.3201 24.9648 61.5227 24.9648 60.5413V58.6091H35.607V60.5106C35.607 61.492 36.4044 62.2894 37.3859 62.2894H44.4705C45.4519 62.2894 46.2493 61.492 46.2493 60.5106V56.4316C52.3218 53.3033 56.4008 47.2001 56.8915 40.3915C59.0691 39.6861 60.5412 37.6313 60.5412 35.3004V31.7121C60.5412 30.7307 59.7438 29.9333 58.7624 29.9333C57.7809 29.9333 56.9835 30.7307 56.9835 31.7121V35.3004C56.9835 35.5765 56.8915 35.8525 56.7689 36.1285C55.4194 26.5597 47.1694 19.1991 37.3552 19.1991H23.186C22.0512 19.1991 20.9471 19.3217 19.843 19.5364C18.1869 17.0522 15.4573 15.5801 12.5437 15.5801Z" fill="#EC4C93"/>
</svg>
