<svg width="67" height="63" viewBox="0 0 67 63" fill="none" xmlns="http://www.w3.org/2000/svg">
<path fill-rule="evenodd" clip-rule="evenodd" d="M32.4217 0C31.4314 0 30.6328 0.988861 30.6328 2.16911V8.45317C30.6328 9.82481 31.4633 10.8137 32.4217 10.8137C33.38 10.8137 34.2105 9.82481 34.2105 8.45317V2.16911C34.2105 0.988861 33.4119 0 32.4217 0Z" fill="#EC4C93"/>
<path fill-rule="evenodd" clip-rule="evenodd" d="M16.7058 8.99561C16.1627 8.99561 15.6197 9.187 15.2044 9.60168C14.4058 10.2397 14.4058 11.388 15.2044 12.0579L19.6126 15.8219C20.0279 16.0771 20.571 16.2047 21.114 16.2047C21.657 16.2047 22.2001 16.0771 22.6154 15.8219C23.414 15.184 23.414 13.8761 22.6154 13.3657L18.2071 9.63358C17.8238 9.2189 17.2488 8.99561 16.7058 8.99561Z" fill="#EC4C93"/>
<path fill-rule="evenodd" clip-rule="evenodd" d="M48.1072 8.99561C47.5961 8.99561 47.085 9.1551 46.6059 9.56978L42.006 13.3657C41.399 13.8442 41.399 15.184 42.006 15.8219C42.4212 16.0771 42.9962 16.2047 43.5712 16.2047C44.1462 16.2047 44.6893 16.0771 45.0087 15.8219L49.6086 12.026C50.4072 11.3561 50.4072 10.2078 49.6086 9.53788C49.2253 9.2189 48.6822 8.99561 48.1072 8.99561Z" fill="#EC4C93"/>
<path fill-rule="evenodd" clip-rule="evenodd" d="M57.6602 27.0181V54.0044H64.2725C65.678 54.0044 66.6683 53.1431 66.6683 52.0905V28.7725C66.253 27.8793 65.2628 27.0181 64.2725 27.0181H57.6602Z" fill="#EC4C93"/>
<path fill-rule="evenodd" clip-rule="evenodd" d="M1.62913 26.9863C0.670818 26.9863 0 27.8157 0 28.964V52.0906C0 53.1433 0.798594 54.0046 1.91662 54.0046H7.18734V27.0182H1.91662C1.82079 27.0182 1.72496 26.9863 1.62913 26.9863Z" fill="#EC4C93"/>
<path fill-rule="evenodd" clip-rule="evenodd" d="M30.8887 28.8047C29.8345 28.8047 28.3971 29.6979 27.6943 30.9419L21.625 42.8082C22.5194 43.3505 23.7652 43.51 24.8194 43.51C27.6624 43.51 30.3456 42.1065 31.7831 39.427L33.0289 36.7794H36.958C38.0121 36.7794 38.9066 37.1303 39.6413 37.832L54.0798 52.1865V28.8047H30.8887Z" fill="#EC4C93"/>
<path fill-rule="evenodd" clip-rule="evenodd" d="M23.2549 19.8092C21.1147 19.8092 19.1661 21.0533 17.9203 23.0629L16.1315 26.6675C15.9718 27.3692 15.0773 27.9115 14.3746 27.9115H10.7969V55.5039H19.6772L25.3632 61.2776C26.3854 62.3303 28.0146 63.0001 29.5798 63.0001C30.1548 63.0001 30.6978 62.9044 31.2409 62.713L47.9474 57.2903C48.8419 57.0989 49.7363 56.3971 50.4391 55.8548L36.4158 41.5961H35.5213L35.3297 41.7875C33.5408 45.5834 29.6437 48.1034 25.7465 48.6457C25.491 48.6457 25.2354 48.6776 24.9799 48.6776C22.3605 48.6776 20.38 47.8482 18.2717 46.8594C17.0259 46.3171 16.6745 45.0411 17.3773 44.148L24.1174 30.0806C25.5549 27.3692 28.2062 25.7424 31.0492 25.7424H39.5782C39.9296 24.6579 40.4726 23.3819 40.4726 21.7551C40.4726 20.6705 39.5782 19.7773 38.3324 19.7773H23.2549V19.8092Z" fill="#EC4C93"/>
</svg>
