<svg width="63" height="63" viewBox="0 0 63 63" fill="none" xmlns="http://www.w3.org/2000/svg">
<path fill-rule="evenodd" clip-rule="evenodd" d="M42.4083 6.09677C43.5034 6.09677 44.2816 7.04134 44.2816 7.95729V9.35984C46.616 10.1327 48.3451 12.4798 48.3451 15.2849C48.3451 16.3726 47.3941 17.3171 46.4719 17.3171C45.2326 17.3171 44.2816 16.3726 44.2816 15.2849C44.2816 14.0254 43.3593 13.2526 42.4083 13.2526C41.3131 13.2526 40.218 14.1972 40.218 15.2849C40.3909 16.3726 42.0913 17.4602 43.6475 18.7197C45.8378 20.294 48.6333 22.2976 48.6333 25.5893C48.6333 28.2512 46.7601 30.4266 44.4257 31.3712V32.7737C44.4257 34.0332 43.5034 34.806 42.5524 34.806C41.6301 34.806 40.3621 33.7183 40.3621 32.7737V31.3712C38.0277 30.5984 36.2985 28.2512 36.2985 25.5893C36.2985 24.3298 37.2207 23.557 38.1718 23.557C39.2669 23.557 40.1892 24.6447 40.1892 25.5893C40.1892 26.677 41.1114 27.7647 42.3795 27.7647C43.4746 27.7647 44.2527 26.677 44.2527 25.5893C44.2527 24.3298 42.6965 23.2422 40.9673 21.9827C38.777 20.4084 36.1256 18.5479 36.1256 15.2849C36.1256 12.4798 37.8548 10.2758 40.1892 9.35984V7.95729C40.218 6.8696 41.1402 6.09677 42.4083 6.09677ZM29.6123 32.7737L24.7706 50.7206L23.6754 46.5129C23.3872 45.4253 22.4938 44.8242 21.6004 44.8242C21.0817 44.8242 20.5341 45.0245 20.1018 45.4253L6.84469 58.7065L3.87626 55.9014L17.1333 42.6202C18.3726 41.3607 17.7674 39.3285 16.2111 39.0136L11.9458 37.7828L29.6123 32.7737ZM42.5524 0C31.1686 0 22.0903 9.21672 22.0903 20.4371C22.0903 24.0436 22.8685 27.3067 24.5977 30.2835L3.67452 36.3803C1.80124 36.8383 1.80124 39.8151 3.67452 40.2731L11.9458 42.3053L1.1672 53.0677C-0.389067 54.642 -0.389067 57.4471 1.1672 58.9927L4.13564 61.7978C4.91377 62.5706 5.9801 62.9714 7.01761 62.9714C8.08394 62.9714 9.12146 62.5706 9.89959 61.7978L20.6782 51.1786L22.8685 59.3076C23.1855 60.338 24.0213 60.8819 24.857 60.8819C25.664 60.8819 26.471 60.3666 26.7591 59.3076L32.8401 38.3839C35.6356 39.9582 39.094 41.0459 42.5236 41.0459C53.9074 41.0459 62.9856 31.8292 62.9856 20.4371C62.8415 9.21672 53.648 0 42.5524 0Z" fill="#EC4C93"/>
</svg>
