<svg width="62" height="62" viewBox="0 0 62 62" fill="none" xmlns="http://www.w3.org/2000/svg">
<path d="M38.2484 25.2C35.8414 25.2 33.8984 23.257 33.8984 20.85V6.35C33.8984 3.943 35.8414 2 38.2484 2C40.6554 2 42.5984 3.943 42.5984 6.35V20.85C42.5984 23.257 40.6554 25.2 38.2484 25.2Z" stroke="#EC4C93" stroke-width="4" stroke-linecap="round" stroke-linejoin="round"/>
<path d="M55.6508 25.2H51.3008V20.85C51.3008 18.443 53.2438 16.5 55.6508 16.5C58.0578 16.5 60.0008 18.443 60.0008 20.85C60.0008 23.257 58.0578 25.2 55.6508 25.2Z" stroke="#EC4C93" stroke-width="4" stroke-linecap="round" stroke-linejoin="round"/>
<path d="M23.7484 36.7998C26.1554 36.7998 28.0984 38.7428 28.0984 41.1498V55.6498C28.0984 58.0568 26.1554 59.9998 23.7484 59.9998C21.3414 59.9998 19.3984 58.0568 19.3984 55.6498V41.1498C19.3984 38.7428 21.3414 36.7998 23.7484 36.7998Z" stroke="#EC4C93" stroke-width="4" stroke-linecap="round" stroke-linejoin="round"/>
<path d="M6.35 36.7998H10.7V41.1498C10.7 43.5568 8.757 45.4998 6.35 45.4998C3.943 45.4998 2 43.5568 2 41.1498C2 38.7428 3.943 36.7998 6.35 36.7998Z" stroke="#EC4C93" stroke-width="4" stroke-linecap="round" stroke-linejoin="round"/>
<path d="M36.8008 38.2499C36.8008 35.8429 38.7438 33.8999 41.1508 33.8999H55.6508C58.0578 33.8999 60.0008 35.8429 60.0008 38.2499C60.0008 40.6569 58.0578 42.5999 55.6508 42.5999H41.1508C38.7438 42.5999 36.8008 40.6569 36.8008 38.2499Z" stroke="#EC4C93" stroke-width="4" stroke-linecap="round" stroke-linejoin="round"/>
<path d="M41.1508 51.2998H36.8008V55.6498C36.8008 58.0568 38.7438 59.9998 41.1508 59.9998C43.5578 59.9998 45.5008 58.0568 45.5008 55.6498C45.5008 53.2428 43.5578 51.2998 41.1508 51.2998Z" stroke="#EC4C93" stroke-width="4" stroke-linecap="round" stroke-linejoin="round"/>
<path d="M25.2 23.7499C25.2 21.3429 23.257 19.3999 20.85 19.3999H6.35C3.943 19.3999 2 21.3429 2 23.7499C2 26.1569 3.943 28.0999 6.35 28.0999H20.85C23.257 28.0999 25.2 26.1569 25.2 23.7499Z" stroke="#EC4C93" stroke-width="4" stroke-linecap="round" stroke-linejoin="round"/>
<path d="M20.85 10.7H25.2V6.35C25.2 3.943 23.257 2 20.85 2C18.443 2 16.5 3.943 16.5 6.35C16.5 8.757 18.443 10.7 20.85 10.7Z" stroke="#EC4C93" stroke-width="4" stroke-linecap="round" stroke-linejoin="round"/>
</svg>
