<svg width="21" height="16" viewBox="0 0 21 16" fill="none" xmlns="http://www.w3.org/2000/svg">
<path d="M18.6667 0H2.33333C1.71449 0 1.121 0.245833 0.683417 0.683417C0.245833 1.121 0 1.71449 0 2.33333L0 12.8333C0 13.4522 0.245833 14.0457 0.683417 14.4832C1.121 14.9208 1.71449 15.1667 2.33333 15.1667H18.6667C19.2855 15.1667 19.879 14.9208 20.3166 14.4832C20.7542 14.0457 21 13.4522 21 12.8333V2.33333C21 1.71449 20.7542 1.121 20.3166 0.683417C19.879 0.245833 19.2855 0 18.6667 0Z" fill="#DA251D"/>
<path d="M11.5218 6.4381L10.4992 3.29102L9.47664 6.4381H6.16797L8.84489 8.38235L7.8223 11.5294L10.4992 9.5846L13.1761 11.5294L12.1536 8.38235L14.8305 6.4381H11.5218Z" fill="#FFFF00"/>
</svg>
