<svg width="70" height="63" viewBox="0 0 70 63" fill="none" xmlns="http://www.w3.org/2000/svg">
<path fill-rule="evenodd" clip-rule="evenodd" d="M37.0921 7.92969C36.1336 7.92969 35.3203 8.80106 35.3203 9.81765C35.3203 10.8343 35.8141 11.5313 36.9469 11.5313H47.5776C48.5361 11.5313 49.3494 12.4027 49.3494 13.4193V16.4982L48.7104 15.8011C48.478 15.4525 48.0133 15.2782 47.5485 15.2782C47.0838 15.2782 46.59 15.4525 46.2705 15.8011C45.7767 16.4982 45.7767 17.689 46.2705 18.3571L49.9884 22.2782C50.3079 22.5396 50.7435 22.6558 51.2083 22.6558C51.644 22.6558 52.0796 22.5396 52.4282 22.2782L55.9718 18.3571C56.6108 17.66 56.6108 16.4691 55.9718 15.8011C55.7394 15.4525 55.2747 15.2782 54.839 15.2782C54.3743 15.2782 53.8805 15.4525 53.561 15.8011L53.0672 16.4982V13.4193C53.0672 10.3405 50.6564 7.92969 47.7518 7.92969H37.0921Z" fill="#EC4C93"/>
<path fill-rule="evenodd" clip-rule="evenodd" d="M18.2996 39.0664C17.8058 39.0664 17.283 39.2116 16.8182 39.6764L13.0713 43.3652C12.4033 44.0332 12.4033 45.3984 13.0713 45.8921C13.4199 46.2407 13.8846 46.3859 14.3494 46.3859C14.8141 46.3859 15.2788 46.2116 15.6274 45.8921L16.2954 45.3984V48.2448C16.2954 51.4399 18.8514 53.7925 21.727 53.7925H32.9386C33.0548 53.7925 33.2 53.8216 33.3162 53.8216C34.5942 53.8216 35.3203 53.0374 35.3203 52.1079C35.3203 50.917 34.478 50.1038 33.4614 50.1038H22.2498C21.2332 50.1038 20.3909 49.2614 20.3909 48.2448V45.3984L20.9137 45.8921C21.2622 46.2407 21.756 46.3859 22.2498 46.3859C22.7435 46.3859 23.2083 46.2116 23.4697 45.8921C24.1377 45.3984 24.1377 44.0332 23.4697 43.3652L19.7228 39.6764C19.3743 39.5021 19.229 39.5021 19.0548 39.1826C18.7933 39.0955 18.561 39.0664 18.2996 39.0664Z" fill="#EC4C93"/>
<path fill-rule="evenodd" clip-rule="evenodd" d="M15.8008 3.3112C16.3527 3.3112 16.8174 3.86307 16.8174 4.38589V5.54772C19.1992 6.01245 20.9129 8.10373 20.9129 10.4855C20.9129 11.0954 20.4481 11.5602 19.9544 11.5602C19.3154 11.5602 18.8506 11.0954 18.8506 10.4855C18.8506 8.85892 17.5145 7.46473 15.7718 7.46473C14.1162 7.46473 12.6929 8.85892 12.6929 10.4855C12.6929 12.112 14.5809 13.4191 16.4979 14.7261C18.6473 16.2946 21.0871 17.9212 21.0871 20.6224C21.0871 23.0913 19.2573 25.1826 16.9046 25.5602V26.722C16.9046 27.332 16.4398 27.7386 15.9461 27.7386C15.3942 27.7386 14.9295 27.1867 14.9295 26.722V25.5602C12.5768 25.0954 10.834 23.0913 10.834 20.6224C10.834 20.0705 11.2988 19.6929 11.7925 19.6929C12.2573 19.6929 12.8963 20.1577 12.8963 20.6224C12.8963 22.3071 14.2324 23.6432 15.9751 23.6432C17.6307 23.6432 18.9668 22.3361 18.9668 20.6224C18.9668 18.9959 17.2241 17.7759 15.249 16.3817C13.0415 14.8423 10.6598 13.2158 10.6598 10.5145C10.6598 8.13278 12.4896 5.95436 14.8423 5.57676V4.41494C14.8714 3.86307 15.3361 3.3112 15.8008 3.3112ZM15.888 0C7.11618 0 0 6.94191 0 15.5104C0 24.0788 7.11618 31.0498 15.888 31.0498C24.7469 31.0498 31.8631 24.1079 31.8631 15.5104C31.8631 6.91286 24.7469 0 15.888 0Z" fill="#EC4C93"/>
<path fill-rule="evenodd" clip-rule="evenodd" d="M53.5586 35.2614C54.1105 35.2614 54.5752 35.8133 54.5752 36.3361V37.4979C56.957 37.9626 58.6707 40.0539 58.6707 42.4357C58.6707 43.0456 58.2059 43.5104 57.7122 43.5104C57.0732 43.5104 56.6084 43.0456 56.6084 42.4357C56.6084 40.8091 55.2723 39.4149 53.5296 39.4149C51.874 39.4149 50.4508 40.8091 50.4508 42.4357C50.4508 44.0622 52.3387 45.3693 54.2557 46.6763C56.3761 48.2158 58.8449 49.8423 58.8449 52.5436C58.8449 55.0124 57.0151 57.1037 54.6624 57.4813V58.6431C54.6624 59.2531 54.1976 59.6597 53.7039 59.6597C53.152 59.6597 52.6873 59.1079 52.6873 58.6431V57.4813C50.3055 57.0166 48.5628 55.0124 48.5628 52.5436C48.5628 51.9917 49.0275 51.6141 49.5213 51.6141C49.986 51.6141 50.625 52.0788 50.625 52.5436C50.625 54.2282 51.9611 55.5643 53.7039 55.5643C55.3595 55.5643 56.6956 54.2572 56.6956 52.5436C56.6956 50.917 54.9528 49.6971 52.9777 48.3029C50.7703 46.7635 48.3885 45.1369 48.3885 42.4357C48.3885 40.0539 50.2184 37.8755 52.5711 37.4979V36.3361C52.6292 35.8133 53.0939 35.2614 53.5586 35.2614ZM53.6458 31.9502C44.874 31.9502 37.7578 38.8921 37.7578 47.4606C37.7578 56.029 44.874 63 53.6458 63C62.5047 63 69.6209 56.0581 69.6209 47.4606C69.6209 38.8631 62.5047 31.9502 53.6458 31.9502Z" fill="#EC4C93"/>
</svg>
