<svg width="64" height="64" viewBox="0 0 64 64" fill="none" xmlns="http://www.w3.org/2000/svg">
<path fill-rule="evenodd" clip-rule="evenodd" d="M29.9127 3.52441C27.2614 4.52255 24.7972 7.79767 22.8945 12.7571C23.7055 13.5681 24.2982 14.6598 24.5477 15.8451C26.3256 15.5644 28.0723 15.4396 29.9127 15.346V3.52441Z" fill="#EC4C93"/>
<path fill-rule="evenodd" clip-rule="evenodd" d="M21.1172 47.5361C23.1758 54.024 26.295 58.6404 29.9133 59.8568V52.0901C28.2601 51.4663 26.9812 50.0627 26.4822 48.3159C24.6107 48.0976 22.8327 47.848 21.1172 47.5361Z" fill="#EC4C93"/>
<path fill-rule="evenodd" clip-rule="evenodd" d="M19 15C17.8929 15 17 15.8994 17 17.0118C17 18.1243 17.8929 19 19 19C20.1071 19 21 18.1243 21 17.0118C21 15.8994 20.1071 15 19 15Z" fill="#EC4C93"/>
<path fill-rule="evenodd" clip-rule="evenodd" d="M29.9139 19.3701C27.9488 19.4325 25.9837 19.5885 24.0498 19.838C23.27 21.3352 21.8041 22.3645 20.0885 22.614C19.683 24.8286 19.4335 27.5423 19.3711 29.9129H29.9139V19.3701Z" fill="#EC4C93"/>
<path fill-rule="evenodd" clip-rule="evenodd" d="M19.3711 33.4375C19.4647 36.6502 19.839 39.863 20.5252 43.0133C22.5838 43.4812 24.7049 43.8243 26.7947 44.0115C27.3562 42.6078 28.4791 41.4849 29.8827 40.9547V33.4375H19.3711Z" fill="#EC4C93"/>
<path fill-rule="evenodd" clip-rule="evenodd" d="M46.7467 29C45.7798 29 45 29.7798 45 30.7779C45 31.7449 45.7798 32.5247 46.7467 32.5247H46.7779C47.7449 32.5247 48.5246 31.7449 48.5246 30.7467C48.5246 29.811 47.7449 29 46.7467 29Z" fill="#EC4C93"/>
<path fill-rule="evenodd" clip-rule="evenodd" d="M33.4375 0V0.093583C39.0832 1.21648 44.261 7.45481 46.7563 16.5628C55.7707 19.0581 62.1026 24.2047 63.2255 29.8816H63.3191C62.3833 14.0674 49.2829 0.935749 33.4375 0Z" fill="#EC4C93"/>
<path fill-rule="evenodd" clip-rule="evenodd" d="M47.5039 21.1167C47.8158 22.7387 48.0653 24.4542 48.2525 26.2009C50.0304 26.7 51.4341 28.322 52.0579 29.9127H59.8246C58.6081 26.4817 53.9918 23.0818 47.5039 21.1167Z" fill="#EC4C93"/>
<path fill-rule="evenodd" clip-rule="evenodd" d="M52.0266 33.4375C51.4028 35.0907 49.9992 36.3695 48.2212 36.8686C48.0653 38.7401 47.8158 40.518 47.4727 42.2335C53.9605 40.1749 58.5457 37.0245 59.7933 33.4375H52.0266Z" fill="#EC4C93"/>
<path fill-rule="evenodd" clip-rule="evenodd" d="M0 33.4375C0.935749 49.5324 13.8179 62.4145 29.9128 63.3503V63.2567C24.1735 62.1026 19.37 55.6771 16.8435 46.538C7.61076 44.0115 1.27886 39.1768 0.124769 33.4375H0Z" fill="#EC4C93"/>
<path fill-rule="evenodd" clip-rule="evenodd" d="M15.3483 21.1167C9.92098 23.1442 6.27157 26.6376 5.27344 29.9127H15.0988C15.1612 27.1679 15.4107 24.0487 15.8162 21.4598C15.6602 21.3662 15.5043 21.2415 15.3483 21.1167Z" fill="#EC4C93"/>
<path fill-rule="evenodd" clip-rule="evenodd" d="M5.27344 33.4375C6.30276 37.0245 10.2641 40.1749 15.8162 42.2335C15.3483 39.3327 15.0676 36.3695 15.0052 33.4375H5.27344Z" fill="#EC4C93"/>
<path fill-rule="evenodd" clip-rule="evenodd" d="M29.9128 0C13.8179 0.935749 0.966941 14.0674 0 29.9128H0.124769C1.09171 25.1405 5.80166 20.4929 13.1941 17.7792C12.3519 14.317 15.0032 11.0107 18.6214 11.0107C18.6526 11.0107 18.6526 11.0107 18.6838 11.0107C18.7462 11.0107 18.8086 11.0107 18.871 11.0418C21.647 4.8659 25.546 0.966944 29.9128 0.124769V0Z" fill="#EC4C93"/>
<path fill-rule="evenodd" clip-rule="evenodd" d="M63.2255 33.4375C62.1026 39.1768 55.8643 43.9803 46.7563 46.538C44.261 55.7707 39.0832 62.1026 33.4375 63.2567V63.3815C49.2829 62.4457 62.4145 49.5324 63.3503 33.4687H63.2255V33.4375Z" fill="#EC4C93"/>
<path fill-rule="evenodd" clip-rule="evenodd" d="M33.4375 3.52441V14.8782C36.3695 14.9717 39.5823 15.3149 42.2335 15.8451C40.2685 9.32606 36.8374 4.74089 33.4375 3.52441Z" fill="#EC4C93"/>
<path fill-rule="evenodd" clip-rule="evenodd" d="M33.4375 19.3701V29.9129H41.0794C41.5785 28.5405 42.639 27.0433 43.9803 26.513C43.7931 24.4855 43.4812 22.4893 43.0445 20.493C40.1749 19.8692 36.6814 19.4637 33.4375 19.3701Z" fill="#EC4C93"/>
<path fill-rule="evenodd" clip-rule="evenodd" d="M42.2336 47.5361C40.6116 47.848 38.4906 48.0976 36.7439 48.2847C36.2448 50.0626 35.0283 51.4663 33.4688 52.0901V59.8568C36.8374 58.6404 40.2685 54.024 42.2336 47.5361Z" fill="#EC4C93"/>
<path fill-rule="evenodd" clip-rule="evenodd" d="M30.9995 45C29.8926 45 29 45.881 29 47C29 48.0952 29.8926 49 30.9995 49C32.1064 49 32.999 48.0952 32.999 47C33.0347 45.881 32.1064 45 30.9995 45Z" fill="#EC4C93"/>
<path fill-rule="evenodd" clip-rule="evenodd" d="M33.4375 33.4375V40.9547C34.8411 41.4538 35.9328 42.5766 36.4943 44.0115C38.6465 43.7931 41.1106 43.4812 43.0133 43.0133C43.4812 40.8923 43.7931 38.7713 43.9491 36.5879C42.6079 36.0264 41.5473 34.8723 41.0483 33.4375H33.4375Z" fill="#EC4C93"/>
</svg>
