<svg width="63" height="63" viewBox="0 0 63 63" fill="none" xmlns="http://www.w3.org/2000/svg">
<path fill-rule="evenodd" clip-rule="evenodd" d="M2.13816 32.2832C0.903446 32.2832 0 33.1565 0 34.2106V60.9526C0 62.1572 0.903446 62.88 2.13816 62.88H6.0531C9.42597 62.88 11.8954 60.26 11.8954 57.3087V38.0352C11.8954 34.7225 9.24528 32.3133 6.0531 32.3133H2.13816V32.2832Z" fill="#EC4C93"/>
<path fill-rule="evenodd" clip-rule="evenodd" d="M32.1318 3.31264C33.1557 3.31264 33.9989 4.15587 33.9989 5.14966V7.4685C35.3541 7.79977 36.3479 8.64299 37.3718 9.81747C38.0343 10.6607 38.0343 11.6545 37.1911 12.317C36.8297 12.5278 36.4382 12.6483 36.0467 12.6483C35.5348 12.6483 35.0529 12.4375 34.6915 11.9857C33.9387 11.1124 33.0954 10.6306 32.3727 10.6306C32.1017 10.6306 31.8607 10.6908 31.6499 10.8113C31.138 10.9618 30.4754 11.8051 30.4754 12.4676C30.4754 13.4614 31.3187 14.3046 32.3426 14.3046C35.5348 14.3046 37.8837 16.8041 37.8837 19.8156C37.8837 21.9839 36.5285 23.9715 34.5108 24.634H34.1796V26.8023C34.1796 27.7961 33.3364 28.6393 32.3426 28.6393C31.3488 28.6393 30.4754 27.7961 30.4754 26.8023V24.634C29.4515 24.3028 28.6083 23.9715 27.7952 22.9777C27.1327 22.4657 26.952 21.1407 27.7952 20.4782C28.0663 20.2071 28.5782 20.0264 29.0902 20.0264C29.5419 20.0264 29.9936 20.1469 30.3249 20.4782C30.9272 21.0805 31.6198 21.5021 32.2823 21.5021C32.5233 21.5021 32.7642 21.4418 33.0051 21.2913C33.6676 21.1407 34.029 20.2975 34.029 19.6349C34.029 18.6412 33.1858 17.7979 32.1619 17.7979C28.9697 17.7979 26.5906 15.2984 26.5906 12.4676C26.5906 10.2993 28.0964 8.31172 30.2948 7.4685V5.14966C30.2646 4.15587 31.1079 3.31264 32.1318 3.31264ZM32.2823 0C21.1699 0 11.8945 9.15494 11.8945 20.1469C11.8945 23.9715 12.9184 27.6455 14.7554 30.8076C17.2851 29.3018 20.146 28.6393 23.0069 28.6393C23.3683 28.6092 23.7297 28.5791 24.061 28.5791C27.5844 28.5791 31.0476 30.0547 34.1194 32.7952H43.3948C44.7499 32.7952 45.9244 33.3071 47.0989 33.9697C50.4718 30.2956 52.6702 25.2966 52.6702 20.1469C52.6702 9.15494 43.3948 0 32.2823 0Z" fill="#EC4C93"/>
<path fill-rule="evenodd" clip-rule="evenodd" d="M22.7052 32.2832C20.0852 32.2832 17.4652 33.0963 15.2969 34.6021V57.7604H42.5208C46.1346 57.7604 49.0858 56.0138 51.224 53.2733L61.704 38.5772C62.8484 36.9811 62.5171 34.7526 60.7102 33.6083C60.2284 33.3673 59.6261 33.2469 58.9937 33.2469C57.9396 33.2469 56.8254 33.6083 56.1026 34.4214L46.255 46.0759C45.5925 46.8588 44.1169 47.3407 43.4543 47.3407H31.4686C30.3242 47.3407 29.5111 46.5276 29.5111 45.594C29.5111 44.4798 30.3242 43.6667 31.4686 43.6667H42.2799C44.2373 43.6667 46.0442 42.0706 46.0442 40.1432C46.0442 38.0653 44.2373 36.4692 42.2799 36.4692H32.613C31.7999 36.4692 31.2879 35.9873 30.6555 35.3549C29.6617 34.3913 28.3668 33.7588 27.2224 33.1264C25.807 32.5542 24.241 32.2832 22.7052 32.2832Z" fill="#EC4C93"/>
</svg>
