<svg width="64" height="56" viewBox="0 0 64 56" fill="none" xmlns="http://www.w3.org/2000/svg">
<path fill-rule="evenodd" clip-rule="evenodd" d="M5.88871 44.5254C-1.45249 44.5254 -1.45249 56.0002 5.88871 56.0002H24.2927C31.6339 56.0002 31.6339 44.5254 24.2927 44.5254H5.88871Z" fill="#EC4C93"/>
<path fill-rule="evenodd" clip-rule="evenodd" d="M31.6328 44.5254C34.1818 48.062 34.1818 52.4636 31.6328 56.0002H57.8113C60.6917 56.0002 63.2408 53.3541 63.2408 50.3518C63.2408 46.9934 61.0231 44.5254 57.8113 44.5254H31.6328Z" fill="#EC4C93"/>
<path fill-rule="evenodd" clip-rule="evenodd" d="M25.8711 12.9248V28.7249L38.8202 20.8121L25.8711 12.9248Z" fill="#EC4C93"/>
<path fill-rule="evenodd" clip-rule="evenodd" d="M23.9354 7.40391C24.2667 7.40391 24.6236 7.50568 24.955 7.73467L43.5884 18.6751C44.9649 19.3367 44.9649 21.0413 43.5884 21.7029L24.955 32.6433C24.7001 32.796 24.4197 32.8723 24.1138 32.8723C23.1452 32.8723 22.202 32.0582 22.202 31.1422V9.26124C22.2275 8.14175 23.0432 7.40391 23.9354 7.40391ZM5.63335 0C2.54903 0 0 2.51886 0 5.54657V34.6533C0 37.6811 2.54903 40.1999 5.63335 40.1999H57.761C60.6669 40.1999 63.2414 37.6811 63.2414 34.6533V5.54657C63.2414 2.51886 61.0237 0 57.761 0H5.63335Z" fill="#EC4C93"/>
</svg>
